<?xml version="1.0" encoding="UTF-8"?>
<svg width="22px" height="34px" viewBox="0 0 22 34" version="1.1" xmlns="http://www.w3.org/2000/svg" xmlns:xlink="http://www.w3.org/1999/xlink">
    <!-- Generator: Sketch 55 (78076) - https://sketchapp.com -->
    <title>Bahrain_sm</title>
    <desc>Created with Sketch.</desc>
    <g id="Page-1" stroke="none" stroke-width="1" fill="none" fill-rule="evenodd">
        <g id="Artboard" transform="translate(-160.000000, -132.000000)" fill="#FF4251">
            <path d="M174.202284,165.462662 L176.24974,162.79018 C176.348047,162.661862 176.401323,162.504721 176.401323,162.343074 L176.401323,155.65898 C176.401323,155.606157 176.407016,155.553488 176.418304,155.501885 L177.815679,149.113448 L177.301157,145.124198 C177.28002,144.960328 177.314703,144.794115 177.399613,144.652374 C177.885631,143.841051 178.268063,143.249802 178.546909,142.878627 C178.801883,142.539227 179.177052,142.108554 179.672415,141.586608 L179.672435,141.586627 C179.826917,141.423855 179.820197,141.16667 179.657425,141.012188 C179.652704,141.007707 179.647876,141.00334 179.642945,140.999092 L179.524833,140.897321 C179.391387,140.782336 179.221091,140.719088 179.044939,140.719088 L178.322414,140.719088 C178.017318,140.719088 177.743927,140.530649 177.635358,140.245523 L176.449446,137.131034 C176.417631,137.047482 176.401323,136.958827 176.401323,136.869422 L176.401323,136.489373 C176.401323,136.204791 176.632023,135.974092 176.916605,135.974092 L177.460501,135.974092 C177.824132,135.974092 178.133134,136.239931 178.187435,136.599485 L178.500335,138.671351 C178.5301,138.868439 178.638616,139.044995 178.801017,139.160561 L179.565752,139.704758 C179.808987,139.877848 180.132742,139.886663 180.385035,139.727065 L181.089286,139.281562 C181.370672,139.10356 181.497297,138.758667 181.397939,138.440877 L181.18247,137.751718 C181.113849,137.532239 180.946486,137.357512 180.730163,137.27951 L180.416478,137.166401 C180.143615,137.068012 179.954109,136.818381 179.932684,136.529113 L179.712326,133.55398 C179.69347,133.299387 179.543886,133.072802 179.31718,132.955423 L177.630861,132.082318 C177.526395,132.02823 177.410475,132 177.292837,132 L176.394293,132 C176.136759,132 175.898,132.134758 175.764905,132.355234 L174.254854,134.856681 C174.131479,135.061055 173.916551,135.192801 173.678446,135.210004 L172.235794,135.314238 L168.238876,135.314238 C168.166354,135.314238 168.094232,135.324968 168.024852,135.34608 L166.937383,135.676995 C166.804845,135.717326 166.6864,135.794285 166.595698,135.899004 L165.817509,136.79745 C165.701755,136.931092 165.638039,137.101973 165.638039,137.278776 L165.638039,138.032885 C165.638039,138.179845 165.682083,138.323433 165.764487,138.445117 L166.005536,138.801066 C166.193528,139.078668 166.120885,139.456106 165.843283,139.644098 C165.835766,139.649189 165.828136,139.65411 165.820398,139.658859 L165.456175,139.882364 C165.340483,139.953358 165.207396,139.990937 165.071659,139.990937 L164.307306,139.990937 C164.149721,139.990937 163.996307,139.940301 163.869682,139.846497 L162.894636,139.124174 C162.768012,139.03037 162.614597,138.979734 162.457012,138.979734 L161.517381,138.979734 L160.625525,139.272481 C160.496919,139.314696 160.426884,139.453174 160.469098,139.58178 C160.491302,139.649424 160.541822,139.704069 160.607518,139.731504 L160.829808,139.824331 C161.068711,139.924096 161.237529,140.142167 161.274254,140.398447 L161.509947,142.043206 C161.514897,142.077747 161.517381,142.112597 161.517381,142.147491 L161.517381,142.761032 C161.517381,143.128826 161.815537,143.426981 162.18333,143.426981 L162.699661,143.426981 L163.339815,143.944396 C163.470631,144.05013 163.633749,144.107808 163.801953,144.107808 L164.102464,144.107808 C164.422816,144.107808 164.706288,143.90037 164.803197,143.595027 L165.2448,142.203615 C165.267627,142.131689 165.279245,142.056679 165.279245,141.981218 L165.279245,141.531297 C165.279245,141.397509 165.387701,141.289052 165.521489,141.289052 C165.573564,141.289052 165.624252,141.305833 165.666039,141.336906 L165.756343,141.404057 C165.942887,141.542771 166.052833,141.76154 166.052833,141.994005 L166.052833,143.140971 C166.052833,143.324929 166.121799,143.502203 166.246116,143.637797 L167.124728,144.596111 L167.915317,145.390212 C168.052486,145.52799 168.129495,145.714492 168.129495,145.908908 L168.129495,149.586088 C168.129495,149.725019 168.090128,149.861107 168.015956,149.978583 L166.776679,151.941364 C166.748656,151.985747 166.725467,152.033003 166.707508,152.082325 L166.182156,153.525144 C166.09732,153.758137 166.072784,154.0088 166.11083,154.253821 L166.276209,155.318877 C166.331202,155.673034 166.513655,155.994912 166.789275,156.224008 L171.462458,160.108384 C171.764377,160.35934 171.953394,160.720616 171.987408,161.111738 L172.235794,163.967959 L172.96826,165.358234 C173.157516,165.717456 173.602146,165.855241 173.961368,165.665985 C174.05543,165.616428 174.137625,165.547059 174.202284,165.462662 Z" id="Path-9"></path>
        </g>
    </g>
</svg>