<?xml version="1.0" encoding="UTF-8"?>
<svg width="9px" height="16px" viewBox="0 0 9 16" version="1.1" xmlns="http://www.w3.org/2000/svg" xmlns:xlink="http://www.w3.org/1999/xlink">
    <!-- Generator: Sketch 55 (78076) - https://sketchapp.com -->
    <title>ic_facebook</title>
    <desc>Created with Sketch.</desc>
    <g id="Assets" stroke="none" stroke-width="1" fill="none" fill-rule="evenodd">
        <g id="Artboard" transform="translate(-377.000000, -31.000000)" fill="#FFFFFF" fill-rule="nonzero">
            <path d="M385.492604,31.003299 L383.375906,31 C380.997868,31 379.461075,32.5315464 379.461075,34.9020206 L379.461075,36.7011134 L377.33283,36.7011134 C377.148925,36.7011134 377,36.8459381 377,37.0245773 L377,39.6312577 C377,39.8098969 377.149094,39.9545567 377.33283,39.9545567 L379.461075,39.9545567 L379.461075,46.5320412 C379.461075,46.7106804 379.61,46.8553402 379.793906,46.8553402 L382.57066,46.8553402 C382.754566,46.8553402 382.903491,46.7105155 382.903491,46.5320412 L382.903491,39.9545567 L385.391906,39.9545567 C385.575811,39.9545567 385.724736,39.8098969 385.724736,39.6312577 L385.725755,37.0245773 C385.725755,36.9388041 385.690604,36.8566598 385.628283,36.7959588 C385.565962,36.7352577 385.481057,36.7011134 385.392755,36.7011134 L382.903491,36.7011134 L382.903491,35.176 C382.903491,34.4429691 383.083321,34.0708454 384.066358,34.0708454 L385.492264,34.0703505 C385.676,34.0703505 385.824925,33.9255258 385.824925,33.7470515 L385.824925,31.3265979 C385.824925,31.1482887 385.67617,31.0036289 385.492604,31.003299 Z" id="Path"></path>
        </g>
    </g>
</svg>