<?xml version="1.0" encoding="UTF-8"?>
<svg width="34px" height="33px" viewBox="0 0 34 33" version="1.1" xmlns="http://www.w3.org/2000/svg" xmlns:xlink="http://www.w3.org/1999/xlink">
    <!-- Generator: Sketch 55 (78076) - https://sketchapp.com -->
    <title>Kuwait_sm</title>
    <desc>Created with Sketch.</desc>
    <g id="Page-1" stroke="none" stroke-width="1" fill="none" fill-rule="evenodd">
        <g id="Artboard" transform="translate(-185.000000, -47.000000)" fill="#FF4251">
            <path d="M205.795054,79.9858746 L217.619311,79.7475913 C218.265307,79.7345732 218.778437,79.2003366 218.765419,78.5543406 C218.764121,78.4899334 218.757505,78.4257435 218.74564,78.3624254 L218.21144,75.5116347 C218.131418,75.0846133 217.821359,74.7370989 217.406186,74.6091061 C217.128736,74.5235719 216.901259,74.396748 216.723755,74.2286345 C216.421603,73.9424682 215.942536,73.1769738 215.286553,71.9321511 L214.017472,69.7813316 L212.887357,62.8551441 C212.861763,62.6982824 212.773442,62.558588 212.642712,62.4681976 L211.426519,61.627285 C211.207644,61.4759487 210.914207,61.4914081 210.712446,61.6649051 L209.399837,62.7936358 C209.240588,62.9305762 209.000479,62.9124916 208.863539,62.7532426 C208.788253,62.665692 208.756822,62.5486781 208.778107,62.4351879 L208.820973,62.2066311 C208.880526,61.8891038 208.671396,61.5834203 208.353868,61.5238679 C208.28349,61.5106683 208.211286,61.5105028 208.140848,61.5233794 L207.035963,61.7253606 C206.737349,61.7799495 206.451021,61.5821279 206.396432,61.2835137 C206.361808,61.0941107 206.428815,60.9003989 206.573068,60.7728713 L209.542277,58.1479341 C209.6839,58.0227319 209.877296,57.9736844 210.06147,58.0162607 L213.68457,58.8538304 C213.890246,58.9013776 214.105585,58.8344181 214.248032,58.6786224 L217.406739,55.2239105 C217.787827,54.8071105 217.816764,54.1775693 217.475518,53.7275673 L214.588246,49.9201081 C214.526521,49.8387118 214.475723,49.7495818 214.437148,49.6549922 L214.165944,48.9899815 C214.076161,48.7698264 213.862055,48.6259171 213.624296,48.6259171 L211.79123,48.6259171 C211.586497,48.6259171 211.396663,48.7329545 211.290705,48.9081368 L211.25818,48.9619115 C211.143237,49.1519488 210.901988,49.2224233 210.702822,49.1241444 L206.642915,47.1207777 C206.481903,47.041326 206.304764,47 206.125216,47 L199.11499,47 C198.914168,47 198.716728,47.0516941 198.541673,47.1501065 L195.173445,49.0436566 C194.885464,49.2055533 194.679358,49.4816607 194.606028,49.8037877 L193.822285,53.2466576 C193.759999,53.5202727 193.649002,53.7804523 193.494596,54.0147678 L185.311286,66.4332195 C185.108228,66.7413665 185,67.1022992 185,67.4713345 L185,67.4713345 C185,67.79394 185.241456,68.0654824 185.56185,68.1031933 L199.43859,69.7365099 C199.685988,69.765629 199.917632,69.8729551 200.099799,70.0428628 L202.811294,72.5718784 C203.048535,72.7931538 203.183244,73.1030049 203.183244,73.4274217 L203.183244,76.5933979 L204.751128,79.3885437 C204.962279,79.7649735 205.363535,79.9945706 205.795054,79.9858746 Z" id="Path-10"></path>
        </g>
    </g>
</svg>