<?xml version="1.0" encoding="UTF-8"?>
<svg width="180px" height="27px" viewBox="0 0 180 27" version="1.1" xmlns="http://www.w3.org/2000/svg" xmlns:xlink="http://www.w3.org/1999/xlink">
    <!-- Generator: Sketch 55 (78076) - https://sketchapp.com -->
    <title>logo</title>
    <desc>Created with Sketch.</desc>
    <g id="Assets" stroke="none" stroke-width="1" fill="none" fill-rule="evenodd">
        <g id="Artboard" transform="translate(-49.000000, -26.000000)" fill="#FFFFFF">
            <g id="The-Gulf-Road-Final-logo" transform="translate(49.000000, 26.000000)">
                <polyline id="Fill-1" points="36.302 9.08183444 36.302 19.3668675 33.9181667 19.3668675 33.9181667 9.08183444 30.0098333 9.08183444 30.0098333 6.76913245 40.2103333 6.76913245 40.2103333 9.08183444 36.302 9.08183444"></polyline>
                <polyline id="Fill-2" points="53.0421667 19.3668675 50.6585 19.3668675 50.6585 14.1962781 45.0501667 14.1962781 45.0501667 19.3668675 42.6663333 19.3668675 42.6663333 6.76913245 45.0501667 6.76913245 45.0501667 11.8833974 50.6585 11.8833974 50.6585 6.76913245 53.0421667 6.76913245 53.0421667 19.3668675"></polyline>
                <polyline id="Fill-3" points="65.2965 19.3668675 56.3753333 19.3668675 56.3753333 6.76913245 65.261 6.76913245 65.261 9.08183444 58.759 9.08183444 58.759 11.9211258 64.753 11.9211258 64.753 14.1962781 58.759 14.1962781 58.759 17.0539868 65.2965 17.0539868 65.2965 19.3668675"></polyline>
                <path d="M85.1223333,12.015 C85.1578333,12.4536159 85.1751667,12.8173113 85.1751667,13.1053709 C85.1751667,14.9857152 84.6143333,16.546351 83.4926667,17.7872781 C82.371,19.0283841 80.9453333,19.6490265 79.2166667,19.6490265 C77.464,19.6490265 75.9855,19.0158675 74.7821667,17.7497285 C73.5786667,16.4837682 72.9773333,14.9233113 72.9773333,13.0678212 C72.9773333,11.2253841 73.5728333,9.66778808 74.7646667,8.39556954 C75.9566667,7.12317219 77.4168333,6.48697351 79.1463333,6.48697351 C80.4433333,6.48697351 81.6053333,6.8129404 82.6336667,7.46469536 C83.662,8.11645033 84.3806667,9.05662252 84.7895,10.2852119 L82.6511667,11.0939603 C81.939,9.62701987 80.7701667,8.89354967 79.1463333,8.89354967 C78.095,8.89354967 77.2071667,9.29497351 76.4826667,10.0969272 C75.7575,10.8994172 75.3956667,11.8896556 75.3956667,13.0678212 C75.3956667,14.2586821 75.7698333,15.2551788 76.5175,16.0574901 C77.2648333,16.8599801 78.1883333,17.2608675 79.286,17.2608675 C80.1746667,17.2608675 80.9338333,17.0008808 81.5648333,16.4807285 C82.1958333,15.9605762 82.6105,15.2489205 82.8088333,14.3464768 L78.6905,14.3464768 L78.6905,12.015 L85.1223333,12.015" id="Fill-4"></path>
                <path d="M98.096,13.7261921 C98.096,15.4935298 97.6343333,16.9223841 96.7108333,18.012755 C95.7883333,19.1036623 94.5668333,19.6490265 93.0485,19.6490265 C91.494,19.6490265 90.2443333,19.1036623 89.2976667,18.012755 C88.3513333,16.9223841 87.878,15.4935298 87.878,13.7261921 L87.878,6.76913245 L90.2618333,6.76913245 L90.2618333,13.7261921 C90.2618333,14.7790132 90.5156667,15.6220927 91.0236667,16.2550728 C91.5325,16.8878742 92.207,17.204543 93.0485,17.204543 C93.8423333,17.204543 94.4848333,16.8878742 94.9763333,16.2550728 C95.467,15.6220927 95.7123333,14.7790132 95.7123333,13.7261921 L95.7123333,6.76913245 L98.096,6.76913245 L98.096,13.7261921" id="Fill-5"></path>
                <polyline id="Fill-6" points="109.771333 19.3668675 101.3235 19.3668675 101.3235 6.76913245 103.707 6.76913245 103.707 17.0539868 109.771333 17.0539868 109.771333 19.3668675"></polyline>
                <polyline id="Fill-7" points="114.962167 12.1651987 120.658 12.1651987 120.658 14.4780795 114.962167 14.4780795 114.962167 19.3668675 112.578333 19.3668675 112.578333 6.76913245 121.341833 6.76913245 121.341833 9.08183444 114.962167 9.08183444 114.962167 12.1651987"></polyline>
                <path d="M134.648333,12.4287616 C135.196833,12.4287616 135.641167,12.2751656 135.979833,11.9679735 C136.3185,11.6609603 136.487833,11.2564967 136.487833,10.7554768 C136.487833,10.2537417 136.3185,9.84981457 135.979833,9.5422649 C135.641167,9.23525166 135.196833,9.08183444 134.648333,9.08183444 L131.405667,9.08183444 L131.405667,12.4287616 L134.648333,12.4287616 Z M136.523333,19.3668675 L132.650333,14.7412848 L131.405667,14.7412848 L131.405667,19.3668675 L129.021833,19.3668675 L129.021833,6.76913245 L134.648333,6.76913245 C135.909667,6.76913245 136.926333,7.13550993 137.697833,7.86880132 C138.4685,8.60245033 138.854167,9.56443709 138.854167,10.7554768 C138.854167,11.8081192 138.550167,12.6857086 137.943167,13.3877086 C137.335167,14.0895298 136.5175,14.5218874 135.489167,14.6849603 L139.432333,19.3668675 L136.523333,19.3668675 L136.523333,19.3668675 Z" id="Fill-8"></path>
                <path d="M149.8905,16.0574901 C150.620833,15.268053 150.985333,14.2778146 150.985333,13.0867748 C150.985333,11.8959139 150.620833,10.8994172 149.8905,10.0969272 C149.159667,9.29497351 148.263,8.89354967 147.200167,8.89354967 C146.137167,8.89354967 145.239667,9.29497351 144.5095,10.0969272 C143.779333,10.8994172 143.414667,11.8959139 143.414667,13.0867748 C143.414667,14.2778146 143.779333,15.268053 144.5095,16.0574901 C145.239667,16.847106 146.137167,17.2422715 147.200167,17.2422715 C148.263,17.2422715 149.159667,16.847106 149.8905,16.0574901 Z M151.590333,8.40486755 C152.788167,9.68352318 153.386667,11.2439801 153.386667,13.0867748 C153.386667,14.9166954 152.788167,16.4682119 151.590333,17.7404305 C150.392833,19.0128278 148.9295,19.6490265 147.200167,19.6490265 C145.470667,19.6490265 144.007333,19.0128278 142.809667,17.7404305 C141.612,16.4682119 141.0135,14.9166954 141.0135,13.0867748 C141.0135,11.2439801 141.612,9.68352318 142.809667,8.40486755 C144.007333,7.12621192 145.470667,6.48697351 147.200167,6.48697351 C148.9295,6.48697351 150.392833,7.12621192 151.590333,8.40486755 L151.590333,8.40486755 Z" id="Fill-9"></path>
                <path d="M160.821333,9.87145033 L159.104,14.3654305 L162.521833,14.3654305 L160.821333,9.87145033 Z M164.432333,19.3668675 L163.4155,16.6779536 L158.227833,16.6779536 L157.193667,19.3668675 L154.6175,19.3668675 L159.699833,6.76913245 L161.925667,6.76913245 L167.008333,19.3668675 L164.432333,19.3668675 L164.432333,19.3668675 Z" id="Fill-10"></path>
                <g id="Group-14">
                    <path d="M173.443333,17.0539868 C174.67,17.0539868 175.651667,16.6938675 176.388333,15.9729139 C177.123333,15.2521391 177.491667,14.283894 177.491667,13.0678212 C177.491667,11.8519272 177.123333,10.8838609 176.388333,10.1630861 C175.651667,9.44213245 174.67,9.08183444 173.443333,9.08183444 L171.498333,9.08183444 L171.498333,17.0539868 L173.443333,17.0539868 Z M173.443333,6.76913245 C175.383333,6.76913245 176.943333,7.34864901 178.123333,8.50821854 C179.303333,9.66778808 179.893333,11.1878344 179.893333,13.0678212 C179.893333,14.9481656 179.303333,16.4682119 178.123333,17.6277815 C176.943333,18.7869934 175.383333,19.3668675 173.443333,19.3668675 L169.115,19.3668675 L169.115,6.76913245 L173.443333,6.76913245 L173.443333,6.76913245 Z" id="Fill-11"></path>
                    <path d="M1.42108547e-14,26.9892715 L1.42108547e-14,0.0159139073 L23.0293333,0.0159139073 L23.0293333,26.9892715 L1.42108547e-14,26.9892715 Z M19.351,19.318053 C19.1736667,17.2547881 17.0576667,16.8644503 17.0576667,16.8644503 L16.5463333,16.8644503 L16.392,16.6995894 L18.2498333,14.7452185 L18.2701667,12.1612649 L15.192,15.4184305 L14.2936667,14.4593046 L18.2498333,10.2496291 L18.2701667,7.6656755 L13.0956667,13.1802914 L12.2045,12.2286755 L18.1978333,5.79874172 L18.2181667,3.21478808 L11.0075,10.9507351 L3.6785,3.12538411 L3.69866667,5.70915894 L14.1516667,16.8644503 L12.3566667,16.8644503 L3.6785,7.55392053 L3.69866667,10.1376954 L9.96866667,16.8644503 L8.07483333,16.8644503 L3.6785,12.2731987 L3.69866667,14.8571523 L7.25716667,18.6748808 L7.25666667,18.6761325 L17.0576667,18.6761325 C17.605,18.6761325 17.6001667,19.6815695 17.6001667,19.6815695 L17.6001667,20.8146755 L17.5996667,21.0024238 C17.1516667,20.7531656 16.2688333,20.2618013 15.936,20.0744106 C15.7408333,19.9646225 15.4158333,19.9780331 15.4158333,19.9780331 L5.44033333,19.9780331 L3.736,21.7895364 L15.4471667,21.7895364 L17.5936667,22.9637682 L18.1808333,23.269351 L19.351,23.8905298 L19.351,19.318053 Z" id="Combined-Shape"></path>
                </g>
            </g>
        </g>
    </g>
</svg>