<?xml version="1.0" encoding="UTF-8"?>
<svg width="406px" height="281px" viewBox="0 0 406 281" version="1.1" xmlns="http://www.w3.org/2000/svg" xmlns:xlink="http://www.w3.org/1999/xlink">
    <!-- Generator: Sketch 55 (78076) - https://sketchapp.com -->
    <title>Map</title>
    <desc>Created with Sketch.</desc>
    <defs>
        <path d="M195.031424,258.454795 C199.462953,258.454795 204.594839,244.42416 211.208209,239.364742 C217.821579,234.305324 217.821579,234.305324 225.893459,231.452948 C233.965339,228.600573 242.531885,231.452948 252.901196,229.084932 C259.676007,227.537783 279.859925,220.83355 313.45295,208.972232 L313.452952,208.972238 C314.756844,208.511849 315.769391,207.466667 316.1882,206.148832 L325.508743,176.820625 C325.8804,175.65116 325.748115,174.379733 325.143671,173.311827 L321.212054,166.365611 C320.536141,165.171437 319.342985,164.359828 317.98401,164.169831 L280.185655,158.885281 C278.864187,158.700528 277.666138,158.009734 276.844218,156.958612 L260.82564,136.473074 C260.411434,135.943361 260.261507,135.253624 260.418441,134.599763 L260.803666,132.994742 C260.993186,132.205112 260.506702,131.411354 259.717072,131.221833 C259.6262,131.200023 259.533456,131.186925 259.440099,131.182719 L252.975593,130.89144 C252.222589,130.857511 251.53906,130.441377 251.163161,129.788027 L238.908533,108.488275 C238.423898,107.645932 238.547711,106.585648 239.213386,105.87763 L241.207333,103.756852 C241.842272,103.081525 241.987195,102.081257 241.570029,101.253498 L238.141403,94.4502624 C237.836232,93.8447291 237.097961,93.601237 236.492427,93.9064076 C236.343512,93.9814563 236.211446,94.0860539 236.104283,94.2138204 L235.68444,94.7143875 C235.423517,95.0254784 234.959808,95.0661474 234.648717,94.8052244 C234.558236,94.7293344 234.487368,94.6327642 234.442111,94.5236863 L232.640758,90.1820962 C232.526865,89.9075924 232.258902,89.7286601 231.961709,89.7286601 L229.487944,89.7286601 C228.816799,89.7286601 228.23083,89.2742006 228.063833,88.6241647 L226.504972,82.556302 C226.452582,82.3523752 226.315273,82.1806973 226.127842,82.0847773 L221.409873,79.6702955 C220.918507,79.418833 220.609368,78.9133577 220.609368,78.3613856 L220.609368,75.5151055 C220.609368,75.0676894 220.405652,74.6446157 220.055874,74.3656228 L217.138336,72.0385064 C216.854819,71.8123649 216.664878,71.489423 216.605013,71.1317391 L215.514097,64.6136986 L203.230739,63.516631 L199.49182,56.7736449 C199.272814,56.3786783 198.884448,56.1062665 198.438514,56.0348239 L187.31635,54.2529577 C187.205646,54.235222 187.094019,54.2238318 186.982015,54.2188427 L156.605097,52.8657534 C137.32911,34.4243195 122.376424,21.9184655 111.74704,15.3481914 C101.415861,8.96224506 89.0106003,3.95005849 74.5312575,0.31163162 L74.5312582,0.311628996 C73.7144161,0.106369683 72.8558845,0.139254389 72.0571371,0.406396322 L40.4655532,10.9722353 C38.9253043,11.4873732 38.0942876,13.1535934 38.6094255,14.6938424 C38.7343597,15.0673924 38.933065,15.4120371 39.1937478,15.707321 L50.4213954,28.4252438 C50.9012924,28.9688388 50.9132447,29.7811301 50.4495493,30.3386094 L43.9386387,38.166374 C43.7183634,38.4312007 43.4121014,38.6102846 43.0732826,38.6723831 L35.6277965,40.0369861 C35.009429,40.15032 34.4436567,40.4588391 34.0134797,40.917283 L24.2965755,51.2726834 C23.8124068,51.7886668 23.1100743,52.0410254 22.4082277,51.9511953 L7.18283323,50.0024797 C6.44136389,49.9075782 5.74669802,50.3841069 5.568296,51.1100241 L0.447596761,71.9461318 C0.253792362,72.7347213 0.735960906,73.5311088 1.52455035,73.7249132 C1.63938749,73.7531357 1.75720997,73.7674015 1.87546425,73.7674015 L7.76817749,73.7674015 C8.26550062,73.7674015 8.72911958,74.018796 9.00043986,74.435588 L34.6475265,113.833654 C35.0548842,114.459421 35.1179722,115.248803 34.815174,115.931327 C34.3819227,116.907899 34.335455,117.657576 34.675771,118.180356 C35.0368706,118.735064 35.858364,119.072604 37.1402513,119.192977 L37.1402517,119.192972 C37.8104459,119.255905 38.4152097,119.621453 38.7824503,120.185594 L40.8300317,123.331012 C41.0473004,123.664772 41.1198902,124.072389 41.0311986,124.460636 L40.1349434,128.383982 C40.01109,128.926149 40.0966282,129.495092 40.374428,129.976872 L44.2767001,136.74449 C44.623339,137.345655 45.1714064,137.804868 45.8239719,138.040913 C51.2967615,140.020516 55.6268481,142.95665 58.8142316,146.849315 C62.164672,150.941117 65.1940443,157.239696 67.9023484,165.745053 L67.9023347,165.745057 C67.9482678,165.889309 67.9716476,166.039789 67.9716476,166.191177 L67.9716476,179.259418 L70.0195919,188.748336 L80.8329558,203.066997 C80.9899057,203.274824 81.1992392,203.437236 81.4395474,203.537623 C87.3789421,206.018746 91.6000165,208.660543 94.1027705,211.463014 C96.6565928,214.322669 99.0641089,219.435506 101.325319,226.801525 C104.695854,232.848853 107.322224,237.306796 109.20443,240.175353 C112.027739,244.478189 115.636899,244.502087 118.633948,249.975107 C120.052343,252.565288 122.285398,255.737617 124.396192,260.247389 C124.862816,261.244344 125.657906,263.069078 126.781461,265.72159 L126.781464,265.721588 C127.098193,266.469327 127.961114,266.81873 128.708853,266.502002 C128.877077,266.430745 129.030548,266.328761 129.161407,266.201274 L133.857901,261.625775 C134.72456,260.781443 135.120211,259.564692 134.915893,258.37211 C134.45949,255.708121 134.371069,253.777692 134.650631,252.580822 C134.992026,251.119234 135.999186,250.250662 137.672112,249.975107 L142.747176,251.608406 C143.084768,251.717053 143.439229,251.763738 143.79344,251.746207 L163.678676,250.762039 C163.970142,250.747614 164.262132,250.776653 164.545047,250.848202 C169.85317,252.190626 174.049393,252.979692 177.133719,253.2154 C180.299875,253.457362 183.990482,253.245836 188.205541,252.580822 C189.801777,256.496804 192.077071,258.454795 195.031424,258.454795 Z" id="path-1"></path>
        <filter x="-3.7%" y="-4.2%" width="107.4%" height="108.9%" filterUnits="objectBoundingBox" id="filter-2">
            <feOffset dx="0" dy="1" in="SourceAlpha" result="shadowOffsetOuter1"></feOffset>
            <feGaussianBlur stdDeviation="4" in="shadowOffsetOuter1" result="shadowBlurOuter1"></feGaussianBlur>
            <feColorMatrix values="0 0 0 0 0   0 0 0 0 0   0 0 0 0 0  0 0 0 0.11 0" type="matrix" in="shadowBlurOuter1"></feColorMatrix>
        </filter>
    </defs>
    <g id="Assets" stroke="none" stroke-width="1" fill="none" fill-rule="evenodd" opacity="0.6">
        <g id="Artboard" transform="translate(-65.000000, -108.000000)">
            <g id="Group-9" transform="translate(72.000000, 114.000000)">
                <g id="Path-5">
                    <use fill="black" fill-opacity="1" filter="url(#filter-2)" xlink:href="#path-1"></use>
                    <use fill="#FFFFFF" fill-rule="evenodd" xlink:href="#path-1"></use>
                </g>
                <g id="Group-6" transform="translate(184.705908, 15.572983)" fill="#FFFFFF">
                    <path d="M114.012597,249.050503 L119.971486,248.182739 C120.212135,248.147695 120.445331,248.073092 120.661634,247.96195 L127.533621,244.430972 L133.903746,244.049544 C134.852225,243.992751 135.803651,244.089557 136.721254,244.33622 C138.310793,244.763509 139.498855,244.795093 140.28544,244.430972 C141.566667,243.837874 142.982063,242.341101 144.531628,239.940653 L144.542218,239.947489 C145.073953,239.123773 145.255863,238.122248 145.047763,237.164153 L145.047763,237.164153 C144.802976,236.363118 144.991868,235.492432 145.546589,234.864846 L148.528542,231.491198 C149.20543,230.725397 150.170596,230.275991 151.192358,230.250856 L159.493613,230.046653 C160.349388,230.025601 161.153512,229.632697 161.69603,228.970528 L164.837283,225.136463 C165.235058,224.65096 165.467061,224.050924 165.499362,223.424111 C165.581102,221.837932 165.80475,220.613585 166.170307,219.751073 C166.563688,218.822908 167.313173,217.861286 168.418761,216.866207 L168.418756,216.866202 C168.648842,216.659114 168.910182,216.489654 169.193123,216.364081 C171.369599,215.398129 173.291637,214.778391 174.959236,214.504867 C175.972743,214.338629 178.231434,214.129089 181.735312,213.876249 L181.735313,213.876267 C182.504317,213.820776 183.09986,213.18071 183.09986,212.409707 L183.09986,210.661903 L182.860963,199.347228 C183.473932,196.209958 184.097828,194.057411 184.732651,192.889587 C185.285423,191.872705 186.500731,190.561573 188.378576,188.956191 L188.378607,188.956229 C188.687207,188.692405 189.151247,188.728703 189.415071,189.037302 C189.484634,189.118672 189.535587,189.214253 189.564367,189.317364 L189.993083,190.853335 C190.170469,191.48886 190.74949,191.928398 191.409307,191.928398 L192.750513,191.928404 C193.331039,191.928404 193.85722,191.586836 194.093536,191.056586 C195.900105,187.002979 197.364082,184.156722 198.485467,182.517816 C199.685598,180.763824 201.513491,178.901737 203.969148,176.931555 C206.023784,175.075338 207.939626,172.72202 209.716674,169.871602 C211.346317,167.257625 212.742339,164.454664 213.904741,161.46272 L213.90475,161.462724 C214.106264,160.944042 214.104271,160.368358 213.899172,159.851083 L213.213104,158.120765 C212.946339,157.447962 212.366453,156.948857 211.661428,156.785246 L208.630742,156.081931 C208.297132,156.004512 208.001011,155.813066 207.79348,155.540632 L197.12945,141.541501 C196.756348,141.051714 196.195496,140.740184 195.58252,140.682246 L190.487544,140.200673 C190.358202,140.188447 190.230193,140.164817 190.105011,140.130059 L174.459467,135.785846 C174.198818,135.713473 173.963186,135.570598 173.778501,135.372943 L165.632001,126.654345 C165.523488,126.538211 165.434522,126.405252 165.368567,126.260641 L162.645593,120.290374 C162.477105,119.920955 162.041045,119.758068 161.671626,119.926556 C161.642644,119.939775 161.614552,119.954863 161.587527,119.971725 L158.447074,121.931219 C158.102601,122.146153 157.649112,122.041142 157.434177,121.696669 C157.418433,121.671436 157.404235,121.645272 157.391661,121.618319 L156.633228,119.992645 C156.503074,119.713666 156.212888,119.54532 155.906099,119.570817 L154.217813,119.711126 C153.84488,119.742119 153.554736,120.048304 153.543836,120.422364 L153.258497,130.214744 C153.247907,130.578162 153.504551,130.894743 153.8623,130.959558 L155.006624,131.166882 C155.356404,131.230253 155.61074,131.534809 155.61074,131.890283 L155.61074,132.676763 C155.61074,133.040657 155.344526,133.349799 154.984661,133.403801 L149.966444,134.156835 C149.730385,134.192258 149.526218,134.340083 149.418883,134.553291 L149.178029,135.031718 C149.10954,135.167763 149.084996,135.321721 149.107789,135.472317 L149.522041,138.209349 C149.566337,138.502018 149.521268,138.801243 149.39273,139.06788 L145.035591,148.106266 C144.800758,148.593399 144.85228,149.170122 145.16974,149.607915 C147.756939,153.175783 149.54543,155.7879 150.535212,157.444264 C151.390504,158.875561 152.327948,160.728726 153.347547,163.003758 L153.347552,163.003756 C153.822295,164.063053 153.924962,165.25174 153.638876,166.37675 C151.824793,173.510475 150.302752,178.89083 149.072754,182.517816 C147.74597,186.430201 145.882299,190.887606 143.48174,195.890031 L143.48174,195.890031 C142.920198,196.928445 141.989965,197.718776 140.874472,198.10518 L97.9456863,212.975625 C96.7947021,213.374323 96.1848541,214.630589 96.5835527,215.781574 C96.6095203,215.856538 96.6395138,215.930047 96.6734024,216.00178 L111.700577,247.810104 C112.114782,248.68686 113.053045,249.190238 114.012597,249.050503 Z" id="Path-6"></path>
                    <path d="M136.404568,140.586394 L137.599819,139.515397 C138.009808,139.148029 138.267591,138.640618 138.322517,138.092865 L138.723654,134.092492 C138.75574,133.772507 138.857414,133.46341 139.021551,133.186861 L144.017763,124.768914 C144.099915,124.630499 144.134372,124.468948 144.115844,124.309059 L143.578001,119.667675 C143.532993,119.279273 143.799877,118.923593 144.185375,118.85822 L147.537067,118.289835 C147.577678,118.282948 147.618795,118.279487 147.659985,118.279487 L149.800034,118.279487 C150.206062,118.279487 150.535212,117.950336 150.535212,117.544309 L150.535212,115.563276 C150.535212,115.255894 150.343981,114.980959 150.0558,114.874022 L148.401139,114.260016 C148.020475,114.118761 147.826396,113.695661 147.967651,113.314997 C147.980635,113.280009 147.996263,113.24606 148.014402,113.213444 L148.805891,111.790248 C148.935221,111.557697 148.928794,111.273413 148.789089,111.046944 L147.801967,109.446776 C147.6744,109.239985 147.657244,108.98352 147.756132,108.76158 L148.862897,106.277593 C148.958657,106.062674 148.945762,105.814903 148.828211,105.611084 L147.977256,104.135639 C147.774402,103.783916 147.895083,103.334343 148.246806,103.131489 C148.253554,103.127597 148.260363,103.123813 148.267232,103.120137 L150.059484,102.161047 C150.342603,102.009541 150.691295,102.05931 150.920723,102.283973 L151.13056,102.489452 C151.409969,102.763058 151.426286,103.207515 151.167692,103.500872 L150.941636,103.757318 C150.706379,104.024202 150.695981,104.421247 150.916949,104.700077 L152.042731,106.120662 C152.286484,106.428244 152.72885,106.490136 153.047659,106.261263 L157.315274,103.197535 C157.507642,103.059434 157.62171,102.837126 157.62171,102.600319 L157.62171,92.9627595 C157.62171,92.6897631 157.470439,92.4392457 157.22884,92.3121353 L154.765151,91.0159335 C154.523552,90.8888231 154.372281,90.6383057 154.372281,90.3653094 L154.372281,87.4436403 L154.372218,85.1077402 C154.372218,84.7017477 154.043096,84.3726257 153.637103,84.3726257 C153.429306,84.3726257 153.231216,84.4605706 153.091847,84.6147 C151.638652,86.2217973 150.550296,87.4140675 149.826778,88.1915106 C148.904471,89.1825588 147.408329,90.5394928 145.338352,92.2623127 L144.636558,90.8569189 L143.612407,91.2030688 L143.032126,94.3965753 L130.250333,105.667332 L129.955616,109.116283 L127.855046,108.163827 C127.554051,108.027347 127.199407,108.160714 127.062928,108.461709 C127.027729,108.539337 127.00952,108.62359 127.00952,108.708827 L127.00952,109.41514 C127.00952,109.559956 127.052289,109.701547 127.132462,109.822146 L127.560385,110.465847 C127.722073,110.709064 127.72446,111.024925 127.566467,111.270558 L126.202188,113.39162 L118.985383,116.329324 L100.565021,115.349627 C100.238109,115.33224 99.9620814,115.100786 99.8879732,114.78191 L99.7581192,114.223169 C99.6807197,113.890132 99.3839391,113.654415 99.0420258,113.654415 L98.5509538,113.654415 C98.3440467,113.654415 98.1467179,113.741603 98.0074023,113.894579 L95.3068885,116.859889 C95.0000596,117.196803 94.5543574,117.372414 94.1001752,117.335344 L88.3016554,116.862078 C87.644579,116.808449 87.1035174,116.324017 86.9778641,115.676841 L86.4885344,113.156555 C86.4532552,112.97485 86.3507328,112.813139 86.201441,112.703716 L84.4413555,111.413672 L84.0020018,110.72005 C83.867206,110.507244 83.6328394,110.378269 83.3809338,110.378269 L83.1346917,110.378269 C82.7752542,110.378269 82.4838726,110.669651 82.4838726,111.029089 L82.4838726,112.960804 C82.4838726,113.41231 82.6224446,113.85294 82.8808713,114.223175 L97.0539978,134.528298 C97.4038102,135.029456 97.9458941,135.362992 98.5509337,135.449338 L135.810092,140.766669 C136.025153,140.797361 136.242777,140.731366 136.404568,140.586394 Z" id="Path-7"></path>
                    <path d="M80.8300883,101.756599 L84.3283408,101.155312 C84.971986,101.044683 85.5604917,100.722942 86.0010452,100.240832 C87.9108821,98.1508423 89.2649473,96.4696144 90.0632408,95.1971479 C90.9543194,93.7767836 91.9042831,91.6033229 92.9131321,88.6767658 L95.2950972,84.81708 C95.509953,84.4689321 95.6237416,84.0678859 95.6237416,83.6587772 L95.6237416,77.0269084 C95.6237416,76.3048965 95.2703468,75.6286018 94.677624,75.2163146 L93.6804901,74.5227264 C93.190033,74.1815734 92.8589586,73.6560444 92.7630045,73.0663611 L91.8367244,67.3739328 C91.7615184,66.9117567 91.8353604,66.4376386 92.0475591,66.0202247 L94.3826367,61.426915 C94.59353,61.0120686 94.6677966,60.5411442 94.5948092,60.0815288 L93.9952297,56.3058637 C93.8605151,55.4575406 93.2455441,54.7645998 92.419234,54.5300538 L89.7494423,53.7722402 C89.5492825,53.7154254 89.3825706,53.5764565 89.2906487,53.3897958 L86.8627219,48.4595428 C86.7701691,48.2716011 86.6018322,48.132071 86.399983,48.0759904 L84.1274303,47.4445983 C83.9128402,47.3849779 83.6827911,47.4258501 83.5018708,47.5557398 L78.5656241,51.099662 C78.0757467,51.4513639 77.7512475,51.9883185 77.6676532,52.5855505 L77.0427014,57.0505923 C76.9382645,57.796732 76.4601831,58.4379414 75.7748899,58.7509986 C75.3719488,58.9350711 75.0751793,59.176182 74.8845814,59.4743311 C74.5523688,59.9940057 74.2830788,61.0931049 74.0767113,62.7716289 L75.1900448,66.3032944 C75.2611663,66.5289029 75.2193841,66.7749517 75.0777746,66.9644357 L74.6900177,67.4832834 C74.521714,67.7084863 74.2027139,67.7546122 73.9775111,67.5863085 C73.8885857,67.5198508 73.8238228,67.4261453 73.7930896,67.3194691 L73.0303438,64.6719435 C72.9709926,64.4659327 72.7558741,64.3470416 72.5498632,64.4063928 C72.4915536,64.4231917 72.4379943,64.4534264 72.3934842,64.4946704 L72.166617,64.70489 C72.0164693,64.8440198 71.9311262,65.0394498 71.9311262,65.2441481 L71.9311262,67.9769957 C71.9311262,68.1851277 71.8429062,68.3835065 71.6883559,68.5229091 L70.6841562,69.4286855 C70.5296059,69.5680881 70.4413859,69.7664669 70.4413859,69.9745989 L70.4414007,81.2314297 C70.4414007,81.3109234 70.4542937,81.3898909 70.4795776,81.4652566 C70.8882712,82.6834817 71.2741808,83.7423944 71.6373064,84.6419949 C71.94746,85.4103635 72.2794078,86.1576803 72.6331499,86.8839454 L72.6331466,86.8839471 C72.7796876,87.1848094 72.8558422,87.5150741 72.8558422,87.8497267 L72.8558509,92.7540486 C72.8558509,92.9627552 72.8854747,93.1704054 72.943836,93.3707861 C73.7545575,96.1543613 74.5410535,98.0205936 75.3033241,98.9694831 C75.9912416,99.8258165 77.2570551,100.678974 79.1007644,101.528954 L79.100761,101.528962 C79.6409174,101.777983 80.2438896,101.857354 80.8300883,101.756599 Z" id="Path-8"></path>
                    <path d="M58.7004694,77.4987242 L60.7479256,74.8262419 C60.8462332,74.697924 60.8995091,74.5407828 60.8995091,74.3791355 L60.8995091,67.6950421 C60.8995091,67.6422191 60.9052021,67.5895499 60.9164895,67.537947 L62.313865,61.1495104 L61.7993426,57.1602599 C61.7782053,56.9963898 61.8128889,56.8301769 61.8977983,56.6884355 C62.3838167,55.8771125 62.7662486,55.2858635 63.0450942,54.9146886 C63.3000688,54.5752885 63.6752377,54.1446158 64.1706007,53.6226704 L64.1706206,53.6226893 C64.3251028,53.4599172 64.3183826,53.2027318 64.1556104,53.0482496 C64.1508893,53.0437689 64.1460612,53.0394023 64.1411303,53.0351536 L64.0230186,52.9333824 C63.8895724,52.8183982 63.7192764,52.7551504 63.543125,52.7551504 L62.8205998,52.7551504 C62.5155033,52.7551504 62.2421123,52.5667106 62.133544,52.2815847 L60.9476313,49.1670962 C60.9158167,49.0835436 60.8995091,48.9948887 60.8995091,48.905484 L60.8995091,48.5254348 C60.8995091,48.2408528 61.1302084,48.0101536 61.4147903,48.0101536 L61.9586865,48.0101536 C62.3223179,48.0101536 62.6313201,48.2759932 62.6856212,48.6355474 L62.9985211,50.7074128 C63.028286,50.9045011 63.1368015,51.0810565 63.2992024,51.1966233 L64.0639378,51.7408204 C64.3071727,51.9139099 64.6309276,51.9227246 64.8832204,51.7631265 L65.5874718,51.3176235 C65.8688575,51.1396215 65.9954828,50.7947289 65.8961243,50.4769388 L65.6806556,49.7877796 C65.6120348,49.5683012 65.4446713,49.393574 65.228349,49.3155721 L64.914664,49.2024631 C64.6418006,49.1040736 64.4522945,48.8544429 64.4308695,48.565175 L64.210512,45.5900419 C64.1916552,45.3354486 64.042072,45.1088637 63.815366,44.9914849 L62.1290466,44.1183795 C62.0245808,44.0642915 61.9086607,44.0360619 61.791023,44.0360619 L60.8924791,44.0360619 C60.6349446,44.0360619 60.396186,44.1708202 60.2630909,44.3912963 L58.7530399,46.8927429 C58.6296649,47.0971174 58.414737,47.2288624 58.1766313,47.2460659 L56.7339797,47.3502997 L52.7370612,47.3502997 C52.6645401,47.3502997 52.5924181,47.36103 52.5230381,47.3821422 L51.4355683,47.7130565 C51.3030305,47.7533875 51.1845855,47.8303468 51.0938835,47.9350655 L50.3156945,48.8335118 C50.1999404,48.967154 50.1362247,49.1380353 50.1362247,49.3148382 L50.1362247,50.068947 C50.1362247,50.2159074 50.180269,50.3594951 50.2626732,50.4811787 L50.5037219,50.8371277 C50.6917139,51.1147296 50.6190708,51.4921681 50.3414689,51.6801601 C50.3339517,51.6852508 50.3263212,51.6901722 50.3185833,51.6949205 L49.9543602,51.9184259 C49.8386689,51.9894198 49.7055815,52.0269986 49.5698442,52.0269986 L48.8054921,52.0269986 C48.6479071,52.0269986 48.4944923,51.9763634 48.3678679,51.8825589 L47.3928221,51.160236 C47.2661977,51.0664315 47.1127829,51.0157962 46.9551979,51.0157962 L46.015567,51.0157962 L45.1237108,51.3085433 C44.9951042,51.3507577 44.9250695,51.4892355 44.9672839,51.6178421 C44.9894875,51.6854855 45.0400074,51.740131 45.1057036,51.7675654 L45.3279934,51.8603927 C45.566897,51.9601578 45.7357148,52.1782294 45.7724396,52.4345091 L46.0081329,54.0792679 C46.0130827,54.1138092 46.015567,54.1486592 46.015567,54.1835533 L46.015567,54.7970944 C46.015567,55.1648877 46.3137224,55.4630431 46.6815157,55.4630431 L47.1978465,55.4630431 L47.8380007,55.9804575 C47.9688168,56.0861916 48.1319345,56.1438704 48.3001384,56.1438704 L48.6006497,56.1438704 C48.9210015,56.1438704 49.2044736,55.9364316 49.3013823,55.6310893 L49.7429854,54.2396766 C49.7658128,54.1677514 49.7774306,54.0927405 49.7774306,54.0172798 L49.7774306,53.5673585 C49.7774306,53.4335707 49.8858871,53.3251142 50.019675,53.3251142 C50.0717492,53.3251142 50.1224373,53.3418947 50.1642247,53.3729679 L50.2545291,53.4401187 C50.4410722,53.578833 50.5510187,53.797602 50.5510187,54.0300671 L50.5510187,55.177033 C50.5510187,55.3609911 50.6199845,55.538265 50.7443017,55.6738594 L51.6229138,56.6321731 L52.4135031,57.4262743 C52.5506715,57.5640521 52.6276809,57.7505535 52.6276809,57.9449702 L52.6276809,61.6221495 C52.6276809,61.7610811 52.5883138,61.8971692 52.5141413,62.0146445 L51.2748648,63.9774255 C51.2468419,64.0218085 51.2236527,64.069065 51.205694,64.1183866 L50.6803417,65.561206 C50.5955055,65.7941988 50.5709696,66.0448622 50.6090158,66.2898833 L50.7743948,67.3549386 C50.8293875,67.709096 51.0118409,68.0309734 51.2874608,68.2600702 L55.9606441,72.1444456 C56.2625623,72.3954016 56.45158,72.7566781 56.4855933,73.1478004 L56.7339797,76.0040213 L57.4664459,77.3942963 C57.655702,77.7535183 58.1003314,77.891303 58.4595535,77.7020469 C58.5536159,77.6524901 58.6358106,77.5831212 58.7004694,77.4987242 Z" id="Path-9"></path>
                    <path d="M26.2583092,41.5679818 L41.2050936,41.2674415 C42.0169846,41.2511165 42.6619182,40.5797148 42.6455933,39.7678239 C42.6439612,39.686657 42.6356097,39.6057648 42.6206245,39.5259766 L41.9447537,35.9273429 C41.8438594,35.3901359 41.4532932,34.9532343 40.9307088,34.7929953 C40.5791553,34.6851991 40.2910183,34.5251214 40.0662978,34.3127622 C39.6846879,33.9521435 39.0796379,32.9874888 38.2511479,31.4187982 L36.6483309,28.7083958 L35.2209349,19.9796573 C35.1886698,19.7823516 35.0774408,19.6066955 34.9128773,19.4931639 L33.3730339,18.4308326 C33.0982353,18.2412503 32.7301953,18.2606291 32.4768257,18.4780217 L30.8151284,19.9037673 C30.6140193,20.07632 30.3111065,20.0531705 30.1385538,19.8520614 C30.0437653,19.7415861 30.0042556,19.5940526 30.0311465,19.4509913 L30.0858273,19.1600859 C30.1608338,18.7610466 29.8981533,18.3767565 29.499114,18.30175 C29.4106662,18.2851246 29.3199175,18.2848805 29.2313815,18.3010296 L27.8308628,18.5564868 C27.4542384,18.6251838 27.0932341,18.3755593 27.0245371,17.9989349 C26.980933,17.7598798 27.0656892,17.5154469 27.2479229,17.3547002 L30.9979444,14.0468406 C31.1758009,13.889955 31.418417,13.8285041 31.6495114,13.8818088 L36.230657,14.9385044 C36.4887722,14.9980418 36.758959,14.9141192 36.9379201,14.7188218 L40.9301157,10.3622033 C41.410463,9.83800808 41.4469185,9.04520627 41.0167049,8.47914058 L37.3689271,3.67947448 C37.2911551,3.57714371 37.2271363,3.46505722 37.1785076,3.34608101 L36.8351301,2.5059635 C36.7221537,2.22955229 36.4532095,2.04893515 36.1546013,2.04893515 L33.8341326,2.04893515 C33.5770805,2.04893515 33.3386961,2.18319289 33.2054453,2.40301094 L33.1634153,2.47234589 C33.0181744,2.7119435 32.7139075,2.80080977 32.4625413,2.677048 L27.3324637,0.151221181 C27.1304076,0.0517375443 26.9081984,1.3947438e-14 26.6829792,1.39888101e-14 L17.8242387,-1.11022302e-15 C17.5723182,-1.06394597e-15 17.3246228,0.0647263983 17.1049079,0.187971548 L12.8466729,2.57655334 C12.4843369,2.77979933 12.2248925,3.12684246 12.1324833,3.5318818 L11.1421738,7.87251423 C11.0636079,8.21687702 10.923646,8.54426918 10.7289941,8.83900459 L0.392881419,24.4895995 C0.136617438,24.8776258 4.1956097e-14,25.3323906 4.26325641e-14,25.7974021 L4.26325641e-14,25.7974021 C4.08770725e-14,26.2039139 0.304311529,26.5460553 0.708048622,26.5934704 L18.2385958,28.6522677 C18.549111,28.6887347 18.8399187,28.8232312 19.0687907,29.0362268 L22.4963157,32.2259913 C22.7952042,32.5041465 22.9649759,32.8940571 22.9649759,33.3023519 L22.9649759,37.2927708 L24.9470481,40.8184687 C25.2126155,41.2908584 25.716498,41.5788761 26.2583092,41.5679818 Z" id="Path-10"></path>
                </g>
            </g>
        </g>
    </g>
</svg>