<?xml version="1.0" encoding="UTF-8"?>
<svg width="37px" height="40px" viewBox="0 0 37 40" version="1.1" xmlns="http://www.w3.org/2000/svg" xmlns:xlink="http://www.w3.org/1999/xlink">
    <!-- Generator: Sketch 55 (78076) - https://sketchapp.com -->
    <title>Oman_sm</title>
    <desc>Created with Sketch.</desc>
    <g id="Page-1" stroke="none" stroke-width="1" fill="none" fill-rule="evenodd">
        <g id="Artboard" transform="translate(-126.000000, -41.000000)" fill="#FF4251">
            <path d="M131.72278,80.9295898 L133.600045,80.659481 C133.672746,80.6490203 133.743244,80.6267224 133.808737,80.5934727 L135.955803,79.503451 L137.958418,79.3849557 C138.246174,79.3679314 138.534795,79.3972606 138.813244,79.4718215 C139.313733,79.6058383 139.687431,79.6163815 139.934338,79.503451 C140.334325,79.3205052 140.776223,78.8586417 141.260033,78.1178605 L141.26332,78.1200072 C141.428504,77.8670878 141.485029,77.5583625 141.420171,77.2633245 L141.420171,77.2633245 C141.343906,77.016738 141.402525,76.7482186 141.574616,76.5558494 L142.513965,75.5058168 C142.720311,75.2751559 143.012836,75.1400626 143.322233,75.1325427 L145.939747,75.0689239 C146.19898,75.0626233 146.442797,74.9444259 146.608318,74.7448149 L147.595752,73.5539264 C147.718972,73.4053277 147.790953,73.2209346 147.800996,73.028155 C147.82648,72.5389714 147.896265,72.161397 148.010352,71.8954317 C148.133441,71.6084819 148.368275,71.3111587 148.714856,71.003462 L148.714864,71.0034713 C148.784859,70.9413297 148.86415,70.8905284 148.949858,70.8529125 C149.630396,70.5542355 150.231269,70.362663 150.752476,70.278195 C151.069573,70.2268056 151.777343,70.1619931 152.875786,70.0837574 L152.875785,70.0837424 C153.110475,70.0670269 153.292331,69.8717578 153.292331,69.6364739 L153.292331,69.0935329 L153.217795,65.6055824 C153.40904,64.6384629 153.603694,63.9749019 153.801757,63.6148992 C153.974951,63.3001 154.356608,62.8938233 154.946729,62.3960693 L154.946633,62.3959546 C155.041348,62.3160639 155.182895,62.3280821 155.262786,62.4227979 C155.283374,62.447207 155.298515,62.4757298 155.307196,62.5064598 L155.444382,62.9920833 C155.498945,63.185229 155.675206,63.3185955 155.87591,63.3185955 L156.311478,63.3185682 C156.487797,63.3185682 156.647749,63.215234 156.72023,63.0545016 C157.284841,61.8024271 157.742298,60.9234652 158.092602,60.4176158 C158.46704,59.8769164 159.037338,59.3028948 159.803496,58.695551 C160.444538,58.1233389 161.042276,57.3978867 161.59671,56.5191945 C162.105189,55.7133358 162.540768,54.8492118 162.903449,53.9268225 L162.903385,53.9267973 C162.966174,53.7671083 162.965553,53.589459 162.901648,53.4302131 L162.68571,52.8921093 C162.603639,52.687594 162.426592,52.5362517 162.211798,52.4870015 L161.253589,52.2672932 C161.152261,52.2440598 161.062154,52.1863424 160.99868,52.1040134 L157.665627,47.7808761 C157.551646,47.6330366 157.381351,47.5392153 157.195483,47.5218572 L155.595247,47.3724121 C155.556237,47.3687689 155.517619,47.3617242 155.479835,47.3513583 L150.593173,46.0107253 C150.514043,45.9890164 150.442386,45.9460117 150.386007,45.8863945 L147.8418,43.1960662 C147.808345,43.1606902 147.780875,43.1201017 147.760469,43.0758947 L146.908199,41.2295859 C146.856302,41.1171591 146.723091,41.06809 146.610665,41.1199871 C146.60252,41.1237467 146.594608,41.1279918 146.586972,41.1326994 L145.594331,41.7446563 C145.488925,41.8096383 145.350798,41.7768683 145.285816,41.6714624 C145.281449,41.6643789 145.27748,41.6570579 145.273927,41.6495331 L145.033542,41.1404348 C144.993652,41.0559552 144.90556,41.0050641 144.812449,41.0127097 L144.276747,41.0566983 C144.16295,41.0660427 144.074351,41.1594144 144.070985,41.2735452 L143.981852,44.2958676 C143.978578,44.406907 144.057106,44.5036024 144.166456,44.523177 L144.531093,44.5884506 C144.637981,44.6075845 144.715794,44.7005638 144.715794,44.8091506 L144.715794,45.0549655 C144.715794,45.1660921 144.634393,45.2604512 144.524469,45.2767493 L142.951738,45.5099321 C142.87997,45.5205729 142.817788,45.5652836 142.78485,45.6299284 L142.708746,45.7792933 C142.687427,45.821134 142.679784,45.8686122 142.686894,45.9150295 L142.816125,46.7586755 C142.829945,46.8488912 142.815906,46.9411759 142.775886,47.0232015 L141.416251,49.8100109 C141.343204,49.9597277 141.359185,50.1376011 141.45775,50.2718994 C142.265207,51.3720922 142.823371,52.177541 143.132242,52.6882457 C143.399153,53.1295716 143.691707,53.7010063 144.009906,54.4025498 L144.009912,54.402547 C144.157784,54.7285666 144.189758,55.0953418 144.100529,55.4420307 C143.534561,57.6410358 143.059704,59.2995642 142.675959,60.4176158 C142.262005,61.6236783 141.680544,62.9977529 140.931576,64.5398396 L140.931576,64.5398396 C140.756353,64.8599925 140.467732,65.10304 140.122429,65.2212224 L126.715023,69.810002 C126.363558,69.9302935 126.176155,70.3127277 126.296447,70.6641928 C126.304889,70.6888597 126.314758,70.713015 126.326005,70.7365363 L131.020161,80.5539716 C131.147044,80.819338 131.431637,80.9714806 131.72278,80.9295898 Z" id="Path-6"></path>
        </g>
    </g>
</svg>