<?xml version="1.0" encoding="UTF-8"?>
<svg width="20px" height="43px" viewBox="0 0 20 43" version="1.1" xmlns="http://www.w3.org/2000/svg" xmlns:xlink="http://www.w3.org/1999/xlink">
    <!-- Generator: Sketch 55 (78076) - https://sketchapp.com -->
    <title>Qatar_sm</title>
    <desc>Created with Sketch.</desc>
    <g id="Page-1" stroke="none" stroke-width="1" fill="none" fill-rule="evenodd">
        <g id="Artboard" transform="translate(-246.000000, -42.000000)" fill="#FF4251">
            <path d="M254.247014,84.8825174 L257.030727,84.4076936 C257.540989,84.3206559 258.007987,84.0668719 258.358608,83.6860728 C259.874876,82.0393016 260.949944,80.714563 261.583812,79.7118571 C262.291513,78.5923565 263.045981,76.8792815 263.847215,74.5726321 L265.735355,71.5363528 C265.908328,71.2581996 266,70.9371878 266,70.6096383 L266,65.403086 C266,64.8263906 265.716658,64.2865041 265.242058,63.9588871 L264.461296,63.4199255 C264.068908,63.1490594 263.803628,62.7301903 263.726479,62.2596748 L262.993856,57.791534 C262.933154,57.4213237 262.992689,57.0414041 263.163728,56.7075088 L265.010377,53.1025557 C265.180363,52.7707157 265.240241,52.3933597 265.18133,52.0251987 L264.708417,49.0697838 C264.600348,48.3944186 264.10974,47.8433753 263.451404,47.6579267 L261.334844,47.0617068 C261.175696,47.0168758 261.042953,46.906787 260.969458,46.7586773 L259.042695,42.8758071 C258.968698,42.7266863 258.834671,42.6161569 258.674188,42.5719079 L256.868267,42.0739702 C256.698531,42.0271698 256.516744,42.0593132 256.373348,42.1614809 L252.457185,44.9517044 C252.06513,45.2310397 251.805038,45.6591646 251.737808,46.1358362 L251.244358,49.634662 C251.160584,50.2286331 250.77923,50.7386683 250.233204,50.9870126 C249.91456,51.1319385 249.679764,51.3215679 249.528816,51.5559009 C249.264971,51.9654972 249.051099,52.8317836 248.8872,54.1547601 L249.769971,56.9337877 C249.827319,57.1143236 249.793695,57.3114532 249.679743,57.4627712 L249.374293,57.8683849 C249.239669,58.0471542 248.985614,58.0829413 248.806844,57.9483175 C248.736884,57.8956336 248.685876,57.8217016 248.66146,57.7375954 L248.056658,55.6542335 C248.009045,55.4902208 247.837488,55.3958602 247.673475,55.4434733 C247.627638,55.4567799 247.585503,55.4805165 247.55037,55.5128244 L247.372167,55.6766973 C247.251711,55.7874673 247.183162,55.94363 247.183162,56.1072751 L247.183162,58.2537413 C247.183162,58.4201175 247.112314,58.578622 246.988349,58.6895887 L246.194813,59.3999159 C246.070848,59.5108826 246,59.6693871 246,59.8357633 L246.000017,68.7028018 C246.000017,68.7665088 246.010424,68.829788 246.030827,68.8901395 C246.355231,69.8497027 246.661558,70.683827 246.949808,71.3925124 C247.195408,71.9963391 247.458216,72.5836709 247.73823,73.1545079 L247.738231,73.1545076 C247.856228,73.3950553 247.917578,73.6594277 247.917578,73.9273575 L247.917555,77.7819565 C247.917555,77.9492845 247.941486,78.1157524 247.988621,78.2763042 C248.632093,80.468076 249.256347,81.9376848 249.861385,82.6851305 C250.408124,83.3605566 251.414489,84.0334755 252.880479,84.7038874 L252.880481,84.7038829 C253.307728,84.8992676 253.783899,84.961513 254.247014,84.8825174 Z" id="Path-8"></path>
        </g>
    </g>
</svg>