<?xml version="1.0" encoding="UTF-8"?>
<svg width="24px" height="16px" viewBox="0 0 24 16" version="1.1" xmlns="http://www.w3.org/2000/svg" xmlns:xlink="http://www.w3.org/1999/xlink">
    <!-- Generator: Sketch 55 (78076) - https://sketchapp.com -->
    <title>saudi-arabia_flag</title>
    <desc>Created with Sketch.</desc>
    <g id="Assets" stroke="none" stroke-width="1" fill="none" fill-rule="evenodd">
        <g id="Artboard" transform="translate(-335.000000, -31.000000)" fill-rule="nonzero">
            <g id="saudi-arabia" transform="translate(335.000000, 31.000000)">
                <g id="Group" transform="translate(11.988304, 7.983871) scale(-1, 1) rotate(-180.000000) translate(-11.988304, -7.983871) ">
                    <g>
                        <g>
                            <path d="M21.2917544,15.9199462 L2.66146199,15.9199462 C1.19169591,15.9199462 0,14.8244086 0,13.4731183 L0,2.46236559 C0,1.11107527 1.19169591,0.0155376344 2.66146199,0.0155376344 L21.2917544,0.0155376344 C22.7615789,0.0155376344 23.9532164,1.11112903 23.9532164,2.46236559 L23.9532164,13.4731183 C23.9532164,14.8244086 22.7615205,15.9199462 21.2917544,15.9199462" id="Path" fill="#006C35"></path>
                            <g transform="translate(5.555556, 3.655914)" fill="#FFFFFF">
                                <path d="M0.0980701754,7.83344086 C0.068128655,7.45725806 0.0315204678,6.79596774 0.378830409,6.72806452 C0.799356725,6.69075269 0.567134503,7.38198925 0.719473684,7.50736559 C0.748070175,7.56913978 0.80128655,7.56913978 0.805321637,7.49145161 L0.805321637,6.90483871 C0.801988304,6.71462366 0.938421053,6.65833333 1.04350877,6.61919355 C1.15397661,6.62655914 1.22783626,6.62349462 1.27105263,6.525 C1.28836257,6.18731183 1.30497076,5.84908602 1.3222807,5.51080645 C1.3222807,5.51080645 1.57842105,5.44349462 1.59040936,6.08150538 C1.60239766,6.45586022 1.50923977,6.76908602 1.56380117,6.84188172 C1.56578947,6.91344086 1.66491228,6.91774194 1.73415205,6.88284946 C1.84391813,6.81188172 1.89315789,6.7238172 2.06350877,6.75865591 C2.32368421,6.82473118 2.47935673,6.94096774 2.48333333,7.12387097 C2.4680117,7.29822581 2.44672515,7.47252688 2.36491228,7.64688172 C2.37619883,7.67870968 2.31502924,7.76064516 2.32631579,7.79247312 C2.3728655,7.72516129 2.44339181,7.73069892 2.46005848,7.79247312 C2.41549708,7.92645161 2.34695906,8.05489247 2.23584795,8.11053763 C2.14403509,8.18456989 2.00964912,8.16924731 1.96040936,8.01387097 C1.93777778,7.83526882 2.0302924,7.62301075 2.1719883,7.44989247 C2.2025731,7.38198925 2.24450292,7.26946237 2.22590643,7.16790323 C2.15005848,7.12876344 2.0748538,7.14467742 2.01163743,7.20645161 C2.01163743,7.20645161 1.80473684,7.34897849 1.80473684,7.38080645 C1.85994152,7.70376344 1.81736842,7.74048387 1.78678363,7.82978495 C1.76549708,7.95333333 1.70163743,7.99311828 1.65040936,8.07752688 C1.59853801,8.12768817 1.52865497,8.12768817 1.49538012,8.07752688 C1.40356725,7.93193548 1.44614035,7.61935484 1.51269006,7.47930108 C1.55994152,7.35021505 1.63309942,7.26946237 1.59853801,7.26946237 C1.56994152,7.19666667 1.51140351,7.2138172 1.46877193,7.29758065 C1.40754386,7.47129032 1.39555556,7.73064516 1.39555556,7.84688172 C1.37690058,7.99188172 1.35760234,8.30016129 1.25385965,8.37844086 C1.19064327,8.45736559 1.09684211,8.4194086 1.06421053,8.3466129 C1.05754386,8.20349462 1.05619883,8.05973118 1.07421053,7.92758065 C1.14538012,7.69510753 1.16736842,7.49145161 1.2019883,7.25349462 C1.21128655,6.93543011 1.00169591,7.11586022 1.01169591,7.27306452 C1.05959064,7.47801075 1.04695906,7.80096774 1.00438596,7.88295699 C0.970467836,7.96430108 0.929883041,7.98510753 0.846666667,7.97166667 C0.781461988,7.97473118 0.611812865,7.80526882 0.564561404,7.52327957 C0.564561404,7.52327957 0.523976608,7.37768817 0.506666667,7.24924731 C0.483391813,7.10365591 0.378888889,7.00091398 0.305730994,7.2694086 C0.24245614,7.46456989 0.203859649,7.94596774 0.0980701754,7.83344086" id="Path"></path>
                                <path d="M1.23982456,6.29069892 C0.868538012,6.12430108 0.50994152,5.96892473 0.145321637,5.80747312 C0.158654971,6.03564516 0.665614035,6.44731183 1.01163743,6.45344086 C1.23649123,6.44731183 1.17994152,6.37268817 1.23982456,6.29069892" id="Path"></path>
                                <path d="M2.20064327,6.14693548 C2.18865497,6.12612903 2.13608187,6.13467742 2.09748538,6.13467742 C2.05356725,6.13591398 2.03292398,6.14322581 2.00631579,6.17564516 C1.99368421,6.21236559 2.03157895,6.24784946 2.04824561,6.27473118 C2.06888889,6.30715054 2.18,6.34080645 2.21923977,6.24967742 C2.23654971,6.20994624 2.22122807,6.16774194 2.20064327,6.14693548 M3.90660819,6.64672043 C3.89795322,6.5983871 3.89,6.55005376 3.8819883,6.50172043 C3.8719883,6.45462366 3.77023392,6.4527957 3.76619883,6.51274194 C3.72163743,6.69930108 3.53666667,6.72376344 3.4248538,6.43446237 C3.34964912,6.37817204 3.21391813,6.36655914 3.19994152,6.45096774 C3.21789474,6.64489247 3.13204678,6.6711828 2.96175439,6.58005376 C2.90719298,6.96419355 2.85263158,7.33182796 2.7974269,7.7166129 C2.86859649,7.71908602 2.93380117,7.67010753 2.99836257,7.74473118 C2.92719298,7.94844086 2.77678363,8.365 2.69362573,8.39435484 C2.65304094,8.43962366 2.61842105,8.41150538 2.56584795,8.40048387 C2.47666667,8.37419355 2.39350877,8.30322581 2.41947368,8.165 C2.52526316,7.57467742 2.59444444,7.12510753 2.70023392,6.53478495 C2.71619883,6.46564516 2.65298246,6.37451613 2.57181287,6.38370968 C2.43409357,6.46935484 2.39947368,6.64370968 2.16391813,6.63575269 C1.99292398,6.63392473 1.79795322,6.46446237 1.77333333,6.29994624 C1.74538012,6.16903226 1.73473684,6.02715054 1.77333333,5.91333333 C1.89374269,5.7805914 2.03748538,5.79344086 2.16391813,5.8233871 C2.26707602,5.86317204 2.3528655,5.95795699 2.38883041,5.93532258 C2.41345029,5.9077957 2.39549708,5.59397849 1.90175439,5.35295699 C1.60298246,5.23 1.36549708,5.20188172 1.2377193,5.42575269 C1.15853801,5.56586022 1.24368421,6.09801075 1.04877193,5.97505376 C0.471871345,4.60790323 2.39883041,4.41763441 2.61438596,5.91876344 C2.63502924,5.98053763 2.71619883,6.04231183 2.73017544,5.94139785 C2.68561404,4.5822043 1.23976608,4.48860215 0.994210526,4.9161828 C0.932982456,5.01709677 0.914385965,5.24102151 0.908362573,5.3755914 C0.871754386,5.64231183 0.719415205,5.53951613 0.695438596,5.27467742 C0.670818713,5.12725806 0.676783626,5.08629032 0.676783626,4.94435484 C0.753976608,3.87080645 2.61701754,4.33204301 2.91906433,5.2183871 C3.0794152,5.70956989 2.89309942,6.07172043 2.9802924,6.07048387 C3.16461988,5.88698925 3.42274854,6.04543011 3.47929825,6.10903226 C3.50391813,6.14086022 3.5651462,6.16166667 3.6077193,6.12064516 C3.75210526,6.02521505 4.00561404,6.07048387 4.05883041,6.23811828 C4.08877193,6.40204301 4.11339181,6.57209677 4.11935673,6.74768817 C4.00175439,6.71403226 3.91461988,6.69198925 3.90660819,6.64672043" id="Shape"></path>
                                <path d="M4.0769358,8.11666667 L4.07622168,8.11666667 C4.03707502,8.10870968 3.98682707,8.13747312 3.96397529,8.18026882 C3.94034448,8.22370968 3.952874,8.26408602 3.99130654,8.27204301 L3.99202066,8.27204301 C4.0304532,8.28 4.08063623,8.25123656 4.10426705,8.20844086 C4.12789786,8.1655914 4.11536834,8.12462366 4.0769358,8.11666667 M4.18626079,8.11666667 C4.33693972,8.18946237 4.28896396,8.34913978 4.20989161,8.42193548 C4.07914307,8.47086022 3.96540353,8.45494624 3.88191663,8.41946237 C3.77629207,8.33505376 3.75116809,8.20048387 3.83465499,8.11666667 C3.91593462,8.08483871 3.99714933,8.01693548 3.94248683,7.97962366 C3.6935842,7.7588172 3.01179615,7.37892473 3.09080358,7.36607527 C3.10781258,7.34774194 3.5266104,7.34833333 3.53991896,7.36607527 C3.66917435,7.40521505 4.27779775,7.98204301 4.27779775,7.98204301 C4.24605195,8.00467742 4.21794167,8.0211828 4.18619587,8.0438172 C4.15230772,8.06833333 4.15600815,8.0922043 4.18626079,8.11666667" id="Shape"></path>
                                <path d="M0.183216374,5.32295699 C-0.0223976608,5.02198925 -0.0403508772,4.57177419 0.0734502924,4.4377957 C0.133333333,4.37419355 0.23245614,4.34602151 0.306315789,4.36623656 C0.434736842,4.41763441 0.491929825,4.65865591 0.460701754,4.74672043 C0.418128655,4.80849462 0.384210526,4.81827957 0.340935673,4.76569892 C0.250467836,4.59564516 0.211871345,4.71247312 0.204561404,4.80731183 C0.190584795,4.98715054 0.209239766,5.15290323 0.229824561,5.2838172 C0.25245614,5.4183871 0.229824561,5.37741935 0.183216374,5.32295699" id="Path"></path>
                                <path d="M8.97274854,5.80564516 C8.77315789,6.19956989 8.49836257,6.58801075 8.41052632,6.73725806 C8.32269006,6.88715054 7.66134503,7.76919355 7.5648538,7.86833333 C7.34994152,8.10322581 7.9128655,7.77048387 7.49298246,8.23655914 C7.33263158,8.36317204 7.32333333,8.37053763 7.19023392,8.47392473 C7.12368421,8.51795699 6.96,8.59747312 6.93076023,8.46537634 C6.91614035,8.34854839 6.92409357,8.28494624 6.94538012,8.18763441 C6.96134503,8.1227957 7.06450292,8.01392473 7.11502924,7.95150538 C7.78637427,7.12204301 8.3805848,6.28462366 8.95479532,5.23247312 C9.04526316,5.2716129 9.02532164,5.74016129 8.97274854,5.80564516" id="Path"></path>
                                <path d="M8.09976608,4.48924731 C8.06052632,4.44887097 8.19625731,4.27575269 8.3725731,4.27575269 C8.6680117,4.30758065 8.92684211,4.45989247 9.16701754,4.86053763 C9.23157895,4.95413978 9.34467836,5.15413978 9.3480117,5.30892473 C9.36994152,6.21790323 9.29877193,6.92564516 9.15040936,7.58263441 C9.14040936,7.64688172 9.14643275,7.72209677 9.15842105,7.74107527 C9.17707602,7.76188172 9.2422807,7.74107527 9.27619883,7.79247312 C9.32678363,7.84016129 9.14245614,8.23166667 9.03730994,8.3827957 C9.00070175,8.45010753 8.9874269,8.49537634 8.92555556,8.37483871 C8.86035088,8.27698925 8.81707602,8.10629032 8.82239766,7.94725806 C8.96280702,7.05172043 9.00602339,6.26870968 9.09783626,5.3738172 C9.10584795,5.28693548 9.09116959,5.16096774 9.02865497,5.11139785 C8.7977193,4.88865591 8.46304094,4.61521505 8.09976608,4.48924731" id="Path"></path>
                                <path d="M12.0819883,4.49413978 C11.8710526,4.38096774 11.8704094,4.25188172 12.0414035,4.24763441 C12.3361404,4.2788172 12.684152,4.30145161 12.9250292,4.63483871 C12.9888889,4.72844086 13.0660819,4.98107527 13.0687719,5.13645161 C13.0914035,6.04543011 13.0561404,6.7238172 12.9077778,7.38080645 C12.8984795,7.44505376 12.8678363,7.59247312 12.8791813,7.61139785 C12.8984795,7.65666667 12.994269,7.60650538 13.0288889,7.65849462 C13.0794737,7.7055914 12.7800585,8.05913978 12.6755556,8.20962366 C12.6376023,8.27752688 12.6243275,8.3222043 12.5630994,8.20225806 C12.4978947,8.1044086 12.4752632,7.9288172 12.5012281,7.77408602 C12.6576023,6.80209677 12.7740351,6.07172043 12.7979532,5.21043011 C12.7846199,5.12844086 12.781345,5.0844086 12.7394152,4.98166667 C12.6476023,4.8727957 12.5451462,4.73639785 12.4492982,4.67091398 C12.3534503,4.60543011 12.1491813,4.54241935 12.0819883,4.49413978" id="Path"></path>
                                <path d="M12.2403509,5.36521505 C12.2383626,5.5927957 12.2443275,5.78849462 12.2356725,5.95854839 C12.2276608,6.12801075 12.195731,6.26623656 12.1312281,6.38612903 C12.0707018,6.51521505 12.1085965,6.61919355 12.08,6.75623656 C12.0520468,6.89387097 12.0593567,7.0994086 12.0161404,7.26274194 C12.0048538,7.32634409 11.9682456,7.53064516 11.9788889,7.54962366 C11.9968421,7.59548387 12.0627485,7.5483871 12.0953216,7.60102151 C12.1445614,7.64994624 11.9269591,8.16747312 11.8165497,8.31489247 C11.7773099,8.38096774 11.7047953,8.35833333 11.6162573,8.25064516 C11.5344444,8.18032258 11.564386,8.01817204 11.595614,7.86467742 C11.8078947,6.84983871 11.9649123,5.93107527 11.9302924,4.96516129 C11.9202924,4.88252688 12.2430409,5.20983871 12.2403509,5.36521505" id="Path"></path>
                                <path d="M10.6780702,6.62408602 C10.5449708,6.62655914 10.2661988,6.86204301 10.1850292,7.00026882 C10.1544444,7.07978495 10.1737427,7.15688172 10.2009942,7.20215054 C10.2495906,7.23150538 10.3260819,7.26456989 10.3826316,7.23333333 C10.3826316,7.23333333 10.4418713,7.15747312 10.429883,7.14768817 C10.5023977,7.11586022 10.5330409,7.13424731 10.5409942,7.16112903 C10.5456725,7.2088172 10.5197076,7.23698925 10.5190643,7.28956989 C10.5503509,7.43209677 10.7266667,7.45349462 10.7932164,7.36295699 C10.8418129,7.30790323 10.8590643,7.19043011 10.867076,7.11155914 C10.8664327,7.0705914 10.7952047,7.11827957 10.7539766,7.10849462 C10.7140351,7.09870968 10.7040936,7.05591398 10.7007602,7.01736559 C10.6933918,6.91403226 10.6807602,6.74887097 10.6780702,6.62408602" id="Path"></path>
                                <path d="M8.22222222,5.11317204 C8.25883041,5.42209677 8.20888889,5.97198925 8.20561404,6.15430108 C8.19163743,6.58494624 8.1151462,7.41688172 8.07853801,7.55569892 C8.03795322,7.81752688 8.19631579,7.52693548 8.17432749,7.67924731 C8.12309942,7.94043011 7.96473684,8.11784946 7.77976608,8.35763441 C7.71988304,8.43532258 7.72187135,8.45123656 7.6294152,8.33806452 C7.52695906,8.12521505 7.6154386,7.9783871 7.64204678,7.81258065 C7.77578947,7.27182796 7.85362573,6.77451613 7.89023392,6.28268817 C7.92684211,5.79026882 7.93748538,5.25870968 7.9048538,4.7405914 C8.00461988,4.73698925 8.16567251,4.88989247 8.22222222,5.11317204" id="Path"></path>
                                <path d="M12.6934503,5.60865591 C12.4585965,5.97080645 12.1046199,6.36225806 12.0107602,6.50849462 C11.915614,6.65408602 11.115848,7.60284946 11.0133918,7.69827957 C10.7212865,7.98091398 11.1484795,7.74413978 10.9581871,7.96252688 C10.7964912,8.12521505 10.7499415,8.17602151 10.6122222,8.27387097 C10.5430409,8.31483871 10.5011111,8.39317204 10.4784795,8.25919355 C10.4698246,8.14236559 10.4598246,8.00655914 10.4684795,7.90747312 C10.4684795,7.85241935 10.5303509,7.74967742 10.584269,7.68849462 C11.2935673,6.88715054 12.0673684,6.06870968 12.6901754,5.04043011 C12.7792982,5.08317204 12.75,5.54505376 12.6934503,5.60865591" id="Path"></path>
                                <path d="M4.30649123,8.14112903 C4.09292398,7.58021505 4.42894737,6.96602151 4.66181287,7.02537634 C4.83017544,6.96177419 4.93725146,7.25537634 5.00578947,7.57774194 C5.05304094,7.66827957 5.08830409,7.67747312 5.11222222,7.63155914 C5.10625731,7.20274194 5.14614035,7.10795699 5.26590643,6.97827957 C5.53274854,6.78865591 5.75362573,6.9538172 5.77157895,6.96973118 L5.97918129,7.1611828 C6.02508772,7.20586022 6.08695906,7.20887097 6.15216374,7.16913978 C6.21602339,7.11591398 6.20736842,7.02413978 6.34309942,6.96053763 C6.45754386,6.91833333 6.70239766,6.95075269 6.75894737,7.04188172 C6.8354386,7.16177419 6.85409357,7.2033871 6.88871345,7.24865591 C6.94327485,7.31532258 7.03643275,7.28596774 7.03643275,7.26456989 C7.02777778,7.22725806 6.97321637,7.19053763 7.01046784,7.12327957 C7.07567251,7.07860215 7.0902924,7.10736559 7.12888889,7.11715054 C7.26461988,7.17709677 7.36573099,7.44806452 7.36573099,7.44806452 C7.37169591,7.54897849 7.31052632,7.54043011 7.2705848,7.51962366 C7.2180117,7.49086022 7.21538012,7.48107527 7.16280702,7.45172043 C7.09695906,7.44252688 6.96783626,7.40215054 6.90532164,7.49268817 C6.84011696,7.60155914 6.83877193,7.75327957 6.78953216,7.8627957 C6.78953216,7.87134409 6.70304094,8.03591398 6.78356725,8.04629032 C6.82415205,8.03956989 6.91064327,8.01876344 6.92397661,8.08543011 C6.96590643,8.15026882 6.83280702,8.335 6.74233918,8.42801075 C6.66251462,8.50811828 6.55269006,8.51731183 6.44760234,8.43596774 C6.37309942,8.37295699 6.38374269,8.30322581 6.36906433,8.23655914 C6.35040936,8.16069892 6.35444444,8.06650538 6.43894737,7.9655914 C6.51280702,7.8316129 6.64789474,7.65913978 6.60327485,7.41629032 C6.60327485,7.41629032 6.52409357,7.30129032 6.38701754,7.31596774 C6.32982456,7.32758065 6.23666667,7.35021505 6.1874269,7.68725806 C6.14947368,7.94172043 6.19608187,8.29897849 6.07830409,8.46596774 C6.03573099,8.56688172 6.00508772,8.66413978 5.90134503,8.49166667 C5.87339181,8.42376344 5.75362573,8.32102151 5.84081871,8.10935484 C5.91134503,7.97537634 5.93994152,7.75698925 5.9080117,7.51354839 C5.85877193,7.4444086 5.84812865,7.4211828 5.78356725,7.35204301 C5.69309942,7.26274194 5.59526316,7.28537634 5.52005848,7.31903226 C5.44953216,7.36247312 5.39497076,7.38510753 5.36233918,7.52333333 C5.36830409,7.74354839 5.38163743,8.10446237 5.3377193,8.18091398 C5.27315789,8.29956989 5.16672515,8.25677419 5.12146199,8.22069892 C4.9025731,8.0372043 4.79409357,7.72704301 4.72824561,7.47994624 C4.6677193,7.29951613 4.60315789,7.35150538 4.55789474,7.42430108 C4.44760234,7.51903226 4.44023392,8.26344086 4.30649123,8.14112903" id="Path"></path>
                                <path d="M6.3105848,5.38107527 C6.17619883,5.33887097 6.04777778,5.30586022 6.04707602,5.1272043 C6.09631579,4.87887097 5.97853801,4.96451613 5.90865497,4.99811828 C5.82549708,5.05258065 5.59327485,5.18408602 5.56064327,5.46790323 C5.55532164,5.53580645 5.61321637,5.59268817 5.70567251,5.59268817 C5.84473684,5.5572043 6.05035088,5.55537634 6.22865497,5.53822581 C6.37380117,5.52973118 6.44631579,5.42516129 6.3105848,5.38107527 L6.3105848,5.38107527 Z M6.81362573,6.54333333 C6.83292398,6.57268817 6.89415205,6.57086022 6.95204678,6.54026882 C7.00994152,6.50908602 7.04251462,6.46075269 7.02391813,6.43139785 L7.02391813,6.43139785 C7.00526316,6.40204301 6.94274854,6.40387097 6.8848538,6.43505376 C6.82690058,6.46564516 6.79497076,6.51397849 6.81362573,6.54333333 Z M7.7797076,5.86005376 L6.52812865,5.86553763 C6.46356725,5.88817204 6.48222222,5.90774194 6.52812865,5.92365591 C6.82690058,5.96096774 7.35847953,6.04112903 7.39309942,6.50967742 C7.38777778,6.75435484 7.27929825,6.91403226 6.95263158,6.95865591 C6.71374269,6.94150538 6.54274854,6.72806452 6.57005848,6.49317204 C6.55877193,6.43016129 6.59269006,6.3066129 6.52280702,6.29252688 C6.06304094,6.2533871 5.5619883,5.98973118 5.54538012,5.80010753 C5.51678363,5.78236559 5.45491228,5.83376344 5.4628655,5.91451613 C5.44491228,6.24177419 5.32847953,6.61188172 5.14684211,6.89752688 C5.00181287,7.03026882 5.04701754,6.98623656 4.94988304,6.92322581 C4.88730994,6.85715054 4.87602339,6.81188172 4.87935673,6.68037634 C4.87935673,6.67607527 4.99643275,6.37510753 5.09561404,6.16473118 C5.16146199,5.9494086 5.22403509,5.70225806 5.17877193,5.46983871 C5.02438596,5.16155914 4.71432749,4.88505376 4.41426901,4.73516129 C4.25988304,4.68930108 4.12818713,4.70580645 4.09491228,4.73763441 C4.00040936,4.79575269 4.00508772,4.90462366 4.01175439,4.90645161 C4.26391813,5.06854839 4.55269006,5.19887097 4.77894737,5.635 C4.84549708,5.80198925 4.8654386,5.90231183 4.79959064,6.16048387 C4.77298246,6.25715054 4.7397076,6.33543011 4.66853801,6.40392473 C4.70847953,6.4277957 4.82555556,6.34704301 4.8428655,6.39537634 C4.81690058,6.51892473 4.72578947,6.68408602 4.62263158,6.76849462 C4.53280702,6.84370968 4.43497076,6.85231183 4.35315789,6.78376344 C4.26,6.73607527 4.24005848,6.56537634 4.28461988,6.41672043 C4.33385965,6.30413978 4.46760234,6.28521505 4.56339181,6.05887097 C4.56339181,6.05397849 4.5980117,5.89005376 4.54877193,5.82580645 C4.50953216,5.71322581 4.00052632,5.3455914 3.97187135,5.32908602 C3.95789474,5.31317204 3.9645614,5.33704301 3.9625731,5.39822581 C3.95859649,5.47284946 3.99520468,5.64903226 3.98520468,5.65026882 C3.81953216,5.55177419 3.76432749,5.25021505 3.73438596,5.16091398 C3.31520468,4.89419355 2.84081871,4.69602151 2.56666667,4.42623656 C2.42362573,4.22129032 3.55005848,4.66172043 3.68116959,4.71494624 C3.70976608,4.69478495 3.70643275,4.60301075 3.78561404,4.51978495 C3.90204678,4.37419355 4.15023392,4.28430108 4.39245614,4.33994624 C4.79900585,4.47510753 5.03321637,4.72962366 5.27140351,5.0116129 C5.30532164,5.05747312 5.35853801,5.09236559 5.40777778,5.05747312 C5.57146199,4.71978495 6.0445614,4.48188172 6.65467836,4.45677419 C6.79637427,4.61456989 6.72789474,4.69107527 6.67128655,4.72467742 C6.67128655,4.72956989 6.36923977,4.83478495 6.32397661,4.94 C6.29602339,5.03483871 6.36321637,5.11924731 6.49964912,5.18284946 C6.89157895,5.22629032 7.27678363,5.27462366 7.6494152,5.38473118 C7.65339181,5.49973118 7.72590643,5.67225806 7.77584795,5.74688172 C7.82508772,5.82209677 7.85105263,5.79887097 7.84304094,5.82639785 L7.7797076,5.86005376 Z" id="Shape"></path>
                                <path d="M1.67432749,8.135 C1.81807018,8.07139785 2.08953216,8.09827957 2.07754386,8.31241935 C2.07754386,8.33075269 2.07222222,8.395 2.07023392,8.41215054 C2.04093567,8.47516129 1.96111111,8.45983871 1.94245614,8.3944086 C1.9371345,8.37360215 1.95245614,8.33876344 1.93181287,8.32774194 C1.91982456,8.31672043 1.87391813,8.32344086 1.87590643,8.3822043 C1.87590643,8.4011828 1.8605848,8.42134409 1.85192982,8.43295699 C1.84263158,8.43908602 1.83660819,8.44032258 1.82,8.44032258 C1.80005848,8.43973118 1.80005848,8.43483871 1.7894152,8.41892473 C1.78473684,8.40365591 1.77812865,8.38833333 1.77812865,8.37 C1.7754386,8.34919355 1.76748538,8.34188172 1.75017544,8.3388172 C1.73152047,8.3388172 1.73555556,8.33698925 1.72087719,8.34553763 C1.71157895,8.35473118 1.70023392,8.3583871 1.70023392,8.37365591 C1.70023392,8.38956989 1.69625731,8.41526882 1.69093567,8.42623656 C1.68292398,8.43602151 1.6702924,8.44032258 1.65567251,8.44397849 C1.5771345,8.4433871 1.57181287,8.36139785 1.57649123,8.32956989 C1.57052632,8.32403226 1.56719298,8.17596774 1.67432749,8.135" id="Path"></path>
                                <path d="M5.89473684,6.4944086 C6.03912281,6.43139785 6.38181287,6.46747312 6.29795322,6.67182796 C6.29795322,6.69080645 6.29327485,6.7544086 6.29064327,6.77215054 C6.26134503,6.83456989 6.18152047,6.81924731 6.1628655,6.7544086 C6.15754386,6.73301075 6.17350877,6.69811828 6.15222222,6.68774194 C6.14023392,6.67612903 6.09432749,6.68284946 6.09631579,6.7422043 C6.09631579,6.7611828 6.08099415,6.78075269 6.07233918,6.79295699 C6.06304094,6.79844086 6.05701754,6.79967742 6.04040936,6.79967742 C6.02046784,6.79908602 6.02111111,6.79419355 6.00982456,6.77887097 C6.0051462,6.76295699 5.99853801,6.74768817 5.99853801,6.72994624 C5.99654971,6.70854839 5.98789474,6.7011828 5.97128655,6.69811828 C5.9519883,6.69811828 5.95666667,6.69629032 5.94134503,6.70483871 C5.93204678,6.71403226 5.92070175,6.71768817 5.92070175,6.73295699 C5.92070175,6.74946237 5.91672515,6.77516129 5.91140351,6.7861828 C5.90409357,6.79537634 5.89076023,6.79962366 5.87678363,6.80333333 C5.79760234,6.80274194 5.7922807,6.72075269 5.79695906,6.68956989 C5.79093567,6.68344086 5.78760234,6.53537634 5.89473684,6.4944086" id="Path"></path>
                                <path d="M8.35660819,7.17462366 C8.50035088,7.11102151 8.77111111,7.13790323 8.75918129,7.35204301 C8.75918129,7.37037634 8.75450292,7.43462366 8.75251462,7.45177419 C8.72321637,7.51478495 8.64339181,7.49887097 8.62473684,7.43403226 C8.6194152,7.41322581 8.63473684,7.3783871 8.61409357,7.36736559 C8.60210526,7.35634409 8.55619883,7.36306452 8.55818713,7.42182796 C8.55818713,7.44080645 8.54222222,7.46096774 8.53421053,7.47258065 C8.52491228,7.47870968 8.51888889,7.47994624 8.5022807,7.47994624 C8.48233918,7.47870968 8.48233918,7.47446237 8.47169591,7.45854839 C8.46701754,7.44263441 8.46040936,7.42795699 8.46040936,7.40962366 C8.4577193,7.3888172 8.44976608,7.38086022 8.43245614,7.37844086 C8.41380117,7.37844086 8.41783626,7.3766129 8.40251462,7.38516129 C8.39385965,7.39435484 8.3825731,7.39741935 8.3825731,7.41327957 C8.3825731,7.42913978 8.37859649,7.45489247 8.37327485,7.46586022 C8.36526316,7.47564516 8.35263158,7.47994624 8.3380117,7.48301075 C8.25947368,7.48301075 8.25415205,7.40043011 8.25883041,7.36924731 C8.25280702,7.36365591 8.24947368,7.2155914 8.35660819,7.17462366" id="Path"></path>
                                <path d="M9.63146199,5.46672043 C9.38064327,5.20672043 9.49105263,4.77672043 9.54760234,4.68370968 C9.63011696,4.53198925 9.69730994,4.43413978 9.85830409,4.35887097 C10.0046784,4.25978495 10.1184795,4.32155914 10.1816959,4.39129032 C10.3294152,4.53198925 10.3314035,4.89043011 10.4005848,4.96198925 C10.4491813,5.09290323 10.5715789,5.07026882 10.6308187,5.01215054 C10.6887135,4.93629032 10.7559064,4.88736559 10.8404094,4.84575269 C10.9781287,4.7338172 11.1424561,4.71360215 11.3048538,4.81575269 C11.4153216,4.87263441 11.487193,4.94666667 11.5523977,5.09284946 C11.624269,5.26962366 11.5843275,6.08747312 11.5697076,6.57193548 C11.5637427,6.60983871 11.4266667,7.23806452 11.4266667,7.24543011 C11.4266667,7.25215054 11.4087135,7.56655914 11.3933918,7.6411828 C11.3907018,7.6711828 11.3827485,7.68032258 11.4173684,7.67607527 C11.4532749,7.64795699 11.4585965,7.64607527 11.4812281,7.63629032 C11.5184795,7.63080645 11.5517544,7.68827957 11.5298246,7.74150538 C11.4153801,7.93602151 11.3002924,8.12994624 11.185848,8.32387097 C11.1585965,8.34892473 11.1226316,8.37645161 11.0794152,8.31715054 C11.0368421,8.28349462 10.992924,8.22231183 10.994269,8.14403226 C11.0049123,8.00580645 11.0308772,7.86569892 11.0408187,7.72747312 C11.0867251,7.49134409 11.1326316,7.25521505 11.1778947,7.01913978 C11.2218129,6.51327957 11.2324561,6.10037634 11.275731,5.59510753 C11.2697661,5.38102151 11.1978947,5.19446237 11.1293567,5.16752688 C11.1293567,5.16752688 11.0261988,5.11247312 10.9570175,5.17301075 C10.9064327,5.19198925 10.7048538,5.48193548 10.7048538,5.48193548 C10.6016959,5.5688172 10.5338596,5.54370968 10.4606433,5.48193548 C10.2583626,5.30209677 10.167193,4.96629032 10.0301754,4.73505376 C9.99426901,4.68306452 9.89444444,4.63903226 9.78333333,4.73870968 C9.50169591,5.09295699 9.66672515,5.59639785 9.63146199,5.46672043" id="Path"></path>
                                <path d="M8.42380117,8.41392473 C8.5528655,8.36435484 8.64403509,8.12397849 8.61409357,8.00650538 C8.58883041,7.86150538 8.5202924,7.70494624 8.47105263,7.72510753 C8.4171345,7.74344086 8.50766082,7.86946237 8.45643275,8.0016129 C8.42783626,8.08784946 8.25152047,8.24505376 8.26947368,8.29155914 C8.23350877,8.38887097 8.34532164,8.43107527 8.42380117,8.41392473" id="Path"></path>
                                <path d="M10.0466667,5.32419355 C10.0739181,5.61290323 10.0280117,5.78849462 10.0200585,5.95854839 C10.0114035,6.12736559 9.81111111,7.42177419 9.77052632,7.54962366 C9.72192982,7.79247312 9.96549708,7.58204301 9.93888889,7.72333333 C9.85438596,7.90134409 9.64415205,8.16010753 9.57824561,8.31483871 C9.53830409,8.38091398 9.55561404,8.43962366 9.46649123,8.33198925 C9.38467836,8.08483871 9.35602339,7.88236559 9.38730994,7.72887097 C9.59888889,6.71344086 9.8151462,5.86989247 9.78122807,4.90397849 C9.88163743,4.90274194 9.9974269,5.115 10.0466667,5.32419355" id="Path"></path>
                                <path d="M12.2509942,8.00655914 C12.3687719,7.95274194 12.4373099,7.65177419 12.4246784,7.56553763 C12.4014035,7.40892473 12.3388304,7.23887097 12.2936257,7.26091398 C12.2450292,7.28107527 12.3036257,7.49397849 12.2802924,7.56064516 C12.2543275,7.65360215 12.0939766,7.82365591 12.1106433,7.8738172 C12.0773099,7.97903226 12.1791228,8.02489247 12.2509942,8.00655914" id="Path"></path>
                                <path d="M3.51076023,5.86983871 C3.62321637,5.83005376 3.68906433,5.60924731 3.67643275,5.54564516 C3.65450292,5.43064516 3.59461988,5.30586022 3.55134503,5.32236559 C3.5054386,5.33645161 3.56134503,5.49301075 3.53871345,5.54198925 C3.5294152,5.66005376 3.37304094,5.72123656 3.37637427,5.77198925 C3.34707602,5.8661828 3.44152047,5.88333333 3.51076023,5.86983871" id="Path"></path>
                                <path d="M0.503274854,8.48553763 C0.669590643,8.43967742 0.678947368,8.21516129 0.666959064,8.14973118 C0.644327485,8.02983871 0.585789474,7.90075269 0.543859649,7.91790323 C0.497953216,7.93258065 0.541871345,8.09532258 0.519883041,8.14548387 C0.495263158,8.21704301 0.354853801,8.34612903 0.370818713,8.38467742 C0.339590643,8.46473118 0.434736842,8.49956989 0.503274854,8.48553763" id="Path"></path>
                                <path d="M3.77953216,7.42543011 C3.65245614,7.36182796 3.6025731,7.1733871 3.68239766,7.06392473 C3.75625731,6.96666667 3.87333333,7.00274194 3.88865497,7.00274194 C4.01374269,6.98865591 4.08760234,7.21806452 4.08760234,7.21806452 C4.08760234,7.21806452 4.09157895,7.28231183 3.94321637,7.15994624 C3.88064327,7.14956989 3.87333333,7.17096774 3.85736842,7.2033871 C3.84473684,7.26274194 3.84736842,7.32268817 3.87666667,7.38263441 C3.89929825,7.43951613 3.85076023,7.46456989 3.77953216,7.42543011" id="Path"></path>
                                <path d="M4.73631579,8.57177419 C4.67245614,8.53263441 4.54467836,8.41091398 4.54070175,8.27145161 C4.53736842,8.19252688 4.52140351,8.19252688 4.57730994,8.14236559 C4.61789474,8.08854839 4.65912281,8.09344086 4.74099415,8.13317204 C4.78824561,8.16435484 4.80356725,8.18575269 4.81953216,8.23897849 C4.83883041,8.32892473 4.71637427,8.19677419 4.70111111,8.29650538 C4.67385965,8.38946237 4.75233918,8.42677419 4.82619883,8.51672043 C4.82883041,8.57790323 4.82748538,8.62129032 4.73631579,8.57177419" id="Path"></path>
                                <path d="M5.50619883,8.44634409 C5.47824561,8.39069892 5.44567251,8.09768817 5.45099415,8.09768817 C5.42906433,8.01080645 5.55011696,7.97349462 5.60538012,8.08543011 C5.68789474,8.29096774 5.68789474,8.37784946 5.69385965,8.46532258 C5.66783626,8.59806452 5.57070175,8.59376344 5.50619883,8.44634409" id="Path"></path>
                                <path d="M10.3580117,6.17752688 C10.3739766,6.1927957 11.041345,6.62897849 11.041345,6.62897849 C11.109883,6.65102151 11.0945614,6.40387097 11.0639766,6.40569892 C11.0766082,6.35677419 10.4052632,5.93774194 10.3580117,5.95489247 C10.3247368,5.93284946 10.2915205,6.12370968 10.3580117,6.17752688" id="Path"></path>
                                <path d="M10.9661988,6.17752688 C11.0839766,6.12370968 11.1305263,5.80741935 11.1172515,5.7211828 C11.1219298,5.55419355 11.0047953,5.42021505 10.9595322,5.44225806 C10.9109357,5.46182796 10.9635088,5.64962366 10.9402339,5.71629032 C10.914269,5.80924731 10.8145029,5.98483871 10.8317544,6.035 C10.7984795,6.14021505 10.8943275,6.19591398 10.9661988,6.17752688" id="Path"></path>
                                <path d="M6.99795322,4.81833333 C7.04385965,4.88075269 7.18760234,4.97005376 7.19093567,4.97005376 C7.25748538,5.00064516 7.32134503,4.9461828 7.31736842,4.94989247 C7.32865497,4.88870968 7.27614035,4.83306452 7.29210526,4.75172043 C7.30672515,4.71870968 7.31736842,4.68198925 7.3825731,4.69607527 C7.48836257,4.77317204 7.58684211,4.77806452 7.69263158,4.78231183 C7.77380117,4.77865591 7.7771345,4.65204301 7.72590643,4.65139785 C7.5302924,4.6116129 7.44245614,4.56392473 7.30274854,4.51435484 C7.23619883,4.47887097 7.17964912,4.52413978 7.17964912,4.52903226 C7.17964912,4.53392473 7.14105263,4.56392473 7.16836257,4.64462366 C7.17304094,4.70887097 7.14508772,4.74435484 7.08654971,4.73698925 C7.0419883,4.71494624 7.00339181,4.70091398 6.98140351,4.74736559 C6.97263158,4.78102151 6.96929825,4.79811828 6.99795322,4.81833333" id="Path"></path>
                                <path d="M11.6681287,4.64763441 C11.6967251,4.61397849 11.7153801,4.58403226 11.6661404,4.52897849 C11.6195906,4.48919355 11.5863158,4.4672043 11.5397076,4.42806452 C11.517076,4.39317204 11.5030994,4.3405914 11.5709942,4.32408602 C11.6954386,4.29166667 11.9842105,4.46354839 11.9842105,4.4672043 C12.0307602,4.49962366 12.0147953,4.56016129 12.011462,4.56016129 C11.9842105,4.58892473 11.9229825,4.57241935 11.8810526,4.57731183 C11.8617544,4.57731183 11.7965497,4.58586022 11.8278363,4.63849462 C11.8530994,4.67091398 11.8624561,4.69107527 11.8797076,4.73145161 C11.8996491,4.7705914 11.8823977,4.79688172 11.8125146,4.81833333 C11.7406433,4.8305914 11.7120468,4.82446237 11.6328655,4.81833333 C11.5902924,4.81037634 11.575614,4.79263441 11.5683041,4.74494624 C11.5716374,4.67274194 11.6188889,4.67639785 11.6681287,4.64763441" id="Path"></path>
                                <path d="M11.4112865,1.25327957 L10.4132164,1.25327957 L10.4132164,1.55913978 C10.4132164,1.72795699 10.264152,1.865 10.0805263,1.865 C9.89690058,1.865 9.74783626,1.72795699 9.74783626,1.55913978 L9.74783626,1.25327957 L4.42491228,1.25327957 L3.75953216,1.25327957 L1.76345029,1.25327957 C1.76345029,1.25327957 1.76345029,0.64155914 3.75953216,0.64155914 L9.74783626,0.64155914 L9.74783626,0.335698925 C9.74783626,0.16688172 9.89690058,0.0298387097 10.0805263,0.0298387097 C10.264152,0.0298387097 10.4132164,0.16688172 10.4132164,0.335698925 L10.4132164,0.64155914 L11.0785965,0.64155914 L11.0785965,0.335698925 C11.0785965,0.16688172 11.2276608,0.0298387097 11.4112865,0.0298387097 C11.5949123,0.0298387097 11.7439766,0.16688172 11.7439766,0.335698925 L11.7439766,0.947419355 C11.7439766,1.11623656 11.5949708,1.25327957 11.4112865,1.25327957" id="Path"></path>
                            </g>
                        </g>
                    </g>
                </g>
            </g>
        </g>
    </g>
</svg>