<?xml version="1.0" encoding="UTF-8"?>
<svg width="48px" height="40px" viewBox="0 0 48 40" version="1.1" xmlns="http://www.w3.org/2000/svg" xmlns:xlink="http://www.w3.org/1999/xlink">
    <!-- Generator: Sketch 55 (78076) - https://sketchapp.com -->
    <title>Saudi_sm</title>
    <desc>Created with Sketch.</desc>
    <g id="Page-1" stroke="none" stroke-width="1" fill="none" fill-rule="evenodd">
        <g id="Artboard" transform="translate(-40.000000, -33.000000)" fill="#FF4251">
            <path d="M68.7082166,71.6178597 C69.3605284,71.6178597 70.1159313,69.521427 71.0894055,68.7654577 C72.0628798,68.0094885 72.0628798,68.0094885 73.2510436,67.5832915 C74.4392074,67.1570945 75.7001849,67.5832915 77.2265258,67.2294666 C78.2239202,66.9982581 81.1957263,65.9962453 86.1419442,64.2234284 L86.141944,64.2234278 C86.3324203,64.1551575 86.4798867,64.0015571 86.540342,63.808458 L87.9170475,59.4111451 C87.9700057,59.2419921 87.9511096,59.0585075 87.8647883,58.9036981 L87.2799568,57.8548569 C87.181644,57.6785419 87.0065377,57.5583444 86.8066682,57.5299793 L81.2432631,56.7404327 C81.0485172,56.7127948 80.8723018,56.6100921 80.7522662,56.4542677 L78.3902849,53.3880578 C78.3309426,53.3110225 78.3094782,53.2113455 78.3318536,53.116713 L78.3911871,52.8657736 C78.4185428,52.7500779 78.3469292,52.6341119 78.2312336,52.6067562 C78.2182028,52.6036751 78.204913,52.6018166 78.191537,52.6012048 L77.2377205,52.5575793 C77.1268221,52.5525071 77.0263056,52.4908205 76.971565,52.3942408 L75.1631348,49.2035982 C75.0937985,49.0812671 75.1116016,48.9281298 75.2071528,48.8249678 L75.5094798,48.4985599 C75.6006137,48.400167 75.6214382,48.2556827 75.561799,48.135559 L75.0535289,47.1118138 C75.0093969,47.0229241 74.9015615,46.9866409 74.8126718,47.0307729 C74.7900877,47.0419855 74.7701162,47.0578254 74.7540555,47.0772629 L74.6922572,47.1520546 C74.6543941,47.1978786 74.5865523,47.2043322 74.5407283,47.1664691 C74.5270457,47.1551636 74.5163713,47.1406497 74.5096559,47.1242201 L74.243887,46.4740063 C74.2273469,46.4335401 74.1879735,46.4070982 74.1442575,46.4070982 L73.7798541,46.4070982 C73.6813105,46.4070982 73.5953499,46.3401829 73.5711722,46.2446512 L73.3407831,45.3343348 C73.3332434,45.3045438 73.3133291,45.2793964 73.2860589,45.26523 L72.5892644,44.9032576 C72.5179727,44.8662229 72.4732365,44.7925707 72.4732365,44.7122334 L72.4732365,44.2802302 C72.4732365,44.2152797 72.4439101,44.1538015 72.393431,44.1129305 L71.9611106,43.7628973 C71.9201285,43.7297157 71.8927513,43.6826458 71.8841728,43.6306174 L71.7232232,42.6544649 L69.9151387,42.490543 L69.3641744,41.4819136 C69.3323343,41.4236253 69.27537,41.3832988 69.2098134,41.3726376 L67.5727915,41.1064167 C67.5563517,41.1037431 67.5397705,41.1020259 67.5231317,41.1012735 L63.0519419,40.8991077 C60.214557,38.1436211 58.0135531,36.2750185 56.44893,35.2932997 C54.9286175,34.3393835 53.1031713,33.5906199 50.9725914,33.047009 L50.9726074,33.0469463 C50.8513811,33.0160158 50.7237807,33.0209608 50.6053118,33.0611806 L45.9442363,34.6435967 C45.7190862,34.7200342 45.5985309,34.9645193 45.6749684,35.1896694 C45.6929497,35.2426341 45.7210796,35.2915874 45.7577855,35.3337925 L47.4254159,37.2512653 C47.4942913,37.3304594 47.4960134,37.4477808 47.4294923,37.5289624 L46.4673227,38.7031829 C46.4351407,38.7424574 46.3901114,38.7690916 46.3401923,38.7783788 L45.2446347,38.9822005 C45.153456,38.9991637 45.0701925,39.045117 45.007238,39.1132202 L43.5761868,40.66131 C43.5051457,40.7381611 43.4012635,40.7758145 43.2974794,40.7623307 L41.0572417,40.471275 C40.9482804,40.4571186 40.8461457,40.5272976 40.8202905,40.6340892 L40.0643804,43.7562801 C40.0364053,43.8718276 40.1073967,43.9881755 40.2229442,44.0161506 C40.2395293,44.020166 40.2565331,44.0221951 40.2735975,44.0221951 L41.1431425,44.0221951 C41.2164726,44.0221951 41.2847585,44.0595248 41.3243443,44.1212521 L45.1029895,50.013184 C45.1615334,50.1044736 45.1703605,50.2190491 45.1264907,50.3182288 C45.0610773,50.4661135 45.0536473,50.5794707 45.1042008,50.6583005 C45.1573284,50.7411442 45.2781602,50.7915703 45.466696,50.8095786 L45.4667054,50.8094803 C45.5654269,50.8189098 45.6543445,50.8731684 45.7078799,50.9566479 L46.0115763,51.4302121 C46.0426452,51.4786589 46.05302,51.5375297 46.0403838,51.5936786 L45.9068319,52.1871191 C45.8891929,52.2654984 45.9014069,52.3476384 45.941088,52.4174944 L46.518395,53.4339971 C46.5687149,53.5225819 46.6488129,53.5904566 46.744454,53.6255586 C47.5503861,53.9213505 48.188012,54.3601529 48.6573316,54.9419658 C49.1506399,55.5535174 49.5966627,56.4949764 49.9953999,57.7663428 L49.9954183,57.766337 C50.0019573,57.7871866 50.005284,57.8089102 50.005284,57.8307612 L50.005284,59.7846262 L50.3067371,61.2024436 L51.8771543,63.0920153 C51.7626486,62.9381039 51.5450537,62.9061594 51.3911424,63.0206651 C51.237231,63.1351708 51.2052865,63.3527657 51.3197922,63.506677 C51.4342978,63.6605883 51.6518928,63.6925329 51.8058041,63.5780272 C51.8684789,63.531399 51.913606,63.465005 51.933897,63.389569 C52.8365354,63.7668589 53.4758132,64.1691461 53.8517305,64.5964307 C54.2276478,65.0237153 54.5820291,65.7876664 54.9148745,66.888284 C55.4110101,67.7918651 55.7976063,68.4579631 56.0746631,68.8865778 C56.4902483,69.5295 57.0215091,69.5330708 57.4626684,70.3508398 C57.6714531,70.7378601 58.0001542,71.2118638 58.3108587,71.885706 C58.3796057,72.0348015 58.496788,72.3078019 58.6624057,72.7047071 L58.6621983,72.7047936 C58.708028,72.8146252 58.8342164,72.866509 58.944048,72.8206793 C58.9696168,72.8100101 58.9928883,72.7945104 59.0125877,72.7750289 L59.7086279,72.0866199 C59.8333834,71.9632451 59.890154,71.7867944 59.860745,71.6138193 C59.7923384,71.2114708 59.7788536,70.920258 59.8202906,70.7401811 C59.8705432,70.5217932 60.0187951,70.3920128 60.2650462,70.3508398 L61.0115115,70.5946971 C61.0615717,70.6110509 61.1142075,70.6180811 61.1668048,70.6154387 L64.0921682,70.4683568 C64.1354717,70.4661813 64.1788554,70.470558 64.2208518,70.4813387 C65.0021178,70.6818954 65.6197379,70.799782 66.073712,70.8349987 C66.5397635,70.8711522 67.0830132,70.8395464 67.703461,70.7401811 C67.9384236,71.3253002 68.2733421,71.6178597 68.7082166,71.6178597 Z" id="Path-5"></path>
        </g>
    </g>
</svg>