<?xml version="1.0" encoding="UTF-8"?>
<svg width="45px" height="34px" viewBox="0 0 45 34" version="1.1" xmlns="http://www.w3.org/2000/svg" xmlns:xlink="http://www.w3.org/1999/xlink">
    <!-- Generator: Sketch 55 (78076) - https://sketchapp.com -->
    <title>UAE_sm</title>
    <desc>Created with Sketch.</desc>
    <g id="Page-1" stroke="none" stroke-width="1" fill="none" fill-rule="evenodd">
        <g id="Artboard" transform="translate(-72.000000, -130.000000)" fill="#FF4251">
            <path d="M104.292184,163.865835 L105.003041,163.238252 C105.252206,163.018275 105.409283,162.71245 105.442936,162.381783 L105.681181,160.040832 C105.70091,159.846984 105.763281,159.659901 105.863823,159.492995 L108.850728,154.534541 C108.90111,154.450903 108.922262,154.352891 108.910857,154.255919 L108.590143,151.529017 C108.562709,151.29575 108.723203,151.082017 108.954866,151.04331 L110.96083,150.708143 C110.98481,150.704137 111.00908,150.702123 111.033392,150.702123 L112.315604,150.702123 C112.558774,150.702123 112.755901,150.504995 112.755901,150.261825 L112.755901,149.105415 C112.755901,148.920548 112.64042,148.755369 112.466795,148.691889 L111.484122,148.33261 C111.255738,148.24911 111.138286,147.996278 111.221787,147.767894 C111.230024,147.745365 111.240088,147.723547 111.251879,147.702658 L111.716895,146.878809 C111.796235,146.738245 111.792303,146.565536 111.706648,146.428729 L111.122103,145.495105 C111.043873,145.370158 111.033364,145.214351 111.094106,145.08003 L111.751846,143.625551 C111.810676,143.49546 111.802773,143.344919 111.730647,143.221702 L111.229385,142.365373 C111.106541,142.155514 111.177081,141.885805 111.386941,141.762961 C111.392561,141.759671 111.398254,141.756506 111.404015,141.753468 L112.474098,141.189263 C112.642266,141.100596 112.848351,141.129878 112.985165,141.261878 L113.105816,141.378284 C113.276176,141.54265 113.286082,141.812299 113.128242,141.988722 L113.004997,142.126478 C112.86131,142.287081 112.854983,142.528086 112.990045,142.696007 L113.660107,143.529088 C113.805901,143.710351 114.067544,143.746929 114.257458,143.612596 L116.813963,141.804295 C116.930638,141.721767 117,141.587744 117,141.444832 L117,135.768893 C117,135.604433 116.908344,135.453682 116.762336,135.377995 L115.291584,134.61559 C115.145575,134.539903 115.053919,134.389152 115.053919,134.224691 L115.053919,132.506409 L115.053992,131.132562 C115.053992,130.889352 114.856832,130.692191 114.613622,130.692191 C114.490272,130.692191 114.372577,130.743925 114.289174,130.834804 C113.417802,131.784285 112.765284,132.488589 112.331621,132.947715 C111.779251,133.532515 110.883213,134.333219 109.643505,135.349826 L109.223202,134.520527 L108.609838,134.724784 L108.262308,136.609219 L100.607301,143.259903 L100.430795,145.295071 L99.1665585,144.73027 C98.9874151,144.650237 98.7773112,144.730582 98.6972784,144.909725 C98.6769084,144.955321 98.66638,145.004699 98.66638,145.054637 L98.66638,145.467814 C98.66638,145.555573 98.6926052,145.64133 98.7416899,145.714078 L98.9922468,146.085429 C99.0912967,146.232231 99.0927553,146.424088 98.9959488,146.572379 L98.1828697,147.817875 L93.8607301,149.551365 L82.8279379,148.973218 C82.6325514,148.962979 82.4673593,148.825034 82.4224416,148.634605 L82.3463845,148.312161 C82.2994981,148.113386 82.1220769,147.972946 81.917847,147.972946 L81.6206234,147.972946 C81.497839,147.972946 81.3806319,148.024216 81.2972898,148.114383 L79.678874,149.865331 C79.4954299,150.063797 79.2310105,150.167036 78.9616199,150.145372 L75.4832251,149.86565 C75.0901855,149.834043 74.7660672,149.545011 74.6898319,149.158142 L74.3990714,147.682629 C74.3775135,147.573229 74.3152517,147.476084 74.2248556,147.410804 L73.1723352,146.650721 L72.909539,146.241944 C72.8285234,146.115925 72.688989,146.039748 72.5391746,146.039748 L72.3897751,146.039748 C72.1745083,146.039748 72,146.214256 72,146.429523 L72,147.552473 C72,147.826025 72.0849307,148.09283 72.2430641,148.316045 L80.7249926,160.288797 C80.9352786,160.585628 81.2586711,160.782598 81.6188981,160.83325 L103.939473,163.971773 C104.066874,163.989687 104.195737,163.950983 104.292184,163.865835 Z" id="Path-7"></path>
        </g>
    </g>
</svg>